# Blender 4.0.2
# www.blender.org
mtllib ItemHeal.mtl
o Cube
v 0.912701 1.912701 -1.000000
v 0.912701 2.000000 -0.912701
v 1.000000 1.912701 -0.912701
v 0.912701 0.000000 -0.912701
v 0.912701 0.087299 -1.000000
v 1.000000 0.087299 -0.912701
v 1.000000 1.912701 0.912701
v 0.912701 2.000000 0.912701
v 0.912701 1.912701 1.000000
v 1.000000 0.087299 0.912701
v 0.912701 0.087299 1.000000
v 0.912701 0.000000 0.912701
v -0.912701 1.912701 -1.000000
v -1.000000 1.912701 -0.912701
v -0.912701 2.000000 -0.912701
v -1.000000 0.087299 -0.912701
v -0.912701 0.087299 -1.000000
v -0.912701 0.000000 -0.912701
v -1.000000 1.912701 0.912701
v -0.912701 1.912701 1.000000
v -0.912701 2.000000 0.912701
v -0.912701 0.000000 0.912701
v -0.912701 0.087299 1.000000
v -1.000000 0.087299 0.912701
vn -0.0000 -1.0000 -0.0000
vn -1.0000 -0.0000 -0.0000
vn -0.0000 -0.0000 1.0000
vn -0.0000 1.0000 -0.0000
vn 1.0000 -0.0000 -0.0000
vn 0.5774 0.5774 -0.5774
vn 0.5774 -0.5774 -0.5774
vn 0.5774 0.5774 0.5774
vn 0.5774 -0.5774 0.5774
vn -0.5774 0.5774 -0.5774
vn -0.5774 -0.5774 -0.5774
vn -0.5774 0.5774 0.5774
vn -0.5774 -0.5774 0.5774
vn -0.7071 -0.7071 -0.0000
vn -0.0000 -0.7071 -0.7071
vn 0.7071 -0.0000 -0.7071
vn -0.7071 -0.0000 0.7071
vn 0.7071 -0.0000 0.7071
vn -0.7071 -0.0000 -0.7071
vn -0.0000 0.7071 0.7071
vn 0.7071 0.7071 -0.0000
vn -0.0000 -0.7071 0.7071
vn -0.7071 0.7071 -0.0000
vn -0.0000 0.7071 -0.7071
vn 0.7071 -0.7071 -0.0000
vn -0.0000 -0.0000 -1.0000
vt 0.478127 0.418714
vt 0.343404 0.286275
vt 0.476985 0.285133
vt 0.772095 0.562571
vt 0.637372 0.430131
vt 0.770953 0.428990
vt 0.333019 0.566324
vt 0.198296 0.433884
vt 0.331877 0.432742
vt 0.480629 0.711432
vt 0.345905 0.578992
vt 0.479487 0.577850
vt 0.479378 0.565073
vt 0.344654 0.432633
vt 0.478236 0.431491
vt 0.492155 0.564964
vt 0.492209 0.571352
vt 0.485766 0.565018
vt 0.484515 0.418660
vt 0.478181 0.425103
vt 0.339408 0.566269
vt 0.333074 0.572712
vt 0.344600 0.426245
vt 0.338157 0.419911
vt 0.344545 0.419856
vt 0.632125 0.563767
vt 0.638513 0.563713
vt 0.638568 0.570101
vt 0.476930 0.278744
vt 0.483374 0.285078
vt 0.778483 0.562516
vt 0.772149 0.568960
vt 0.337015 0.286329
vt 0.343349 0.279886
vt 0.777342 0.428935
vt 0.345796 0.566215
vt 0.624595 0.430240
vt 0.625736 0.563822
vt 0.199492 0.573854
vt 0.625791 0.570211
vt 0.491013 0.431382
vt 0.199438 0.567466
vt 0.347047 0.712573
s 0
usemtl マテリアル.001
f 4/1/1 22/2/1 18/3/1
f 19/4/2 16/5/2 24/6/2
f 9/7/3 23/8/3 11/9/3
f 15/10/4 8/11/4 2/12/4
f 3/13/5 10/14/5 6/15/5
f 1/16/6 2/17/6 3/18/6
f 4/1/7 5/19/7 6/20/7
f 7/21/8 8/22/8 9/7/8
f 10/23/9 11/24/9 12/25/9
f 13/26/10 14/27/10 15/28/10
f 16/29/11 17/30/11 18/3/11
f 19/4/12 20/31/12 21/32/12
f 22/2/13 23/33/13 24/34/13
f 22/2/14 16/29/14 18/3/14
f 18/3/15 5/19/15 4/1/15
f 6/15/16 1/16/16 3/13/16
f 20/31/17 24/6/17 23/35/17
f 11/9/18 7/36/18 9/7/18
f 17/37/19 14/27/19 13/38/19
f 21/39/20 9/7/20 8/22/20
f 8/11/21 3/13/21 2/12/21
f 12/25/22 23/33/22 22/2/22
f 15/28/23 19/4/23 21/32/23
f 2/17/24 13/38/24 15/40/24
f 4/1/25 10/14/25 12/25/25
f 13/38/26 5/41/26 17/37/26
f 4/1/1 12/25/1 22/2/1
f 19/4/2 14/27/2 16/5/2
f 9/7/3 20/42/3 23/8/3
f 15/10/4 21/43/4 8/11/4
f 3/13/5 7/36/5 10/14/5
f 22/2/14 24/34/14 16/29/14
f 18/3/15 17/30/15 5/19/15
f 6/15/16 5/41/16 1/16/16
f 20/31/17 19/4/17 24/6/17
f 11/9/18 10/14/18 7/36/18
f 17/37/19 16/5/19 14/27/19
f 21/39/20 20/42/20 9/7/20
f 8/11/21 7/36/21 3/13/21
f 12/25/22 11/24/22 23/33/22
f 15/28/23 14/27/23 19/4/23
f 2/17/24 1/16/24 13/38/24
f 4/1/25 6/15/25 10/14/25
f 13/38/26 1/16/26 5/41/26
