# Blender 4.0.2
# www.blender.org
mtllib ItemStamina.mtl
o Cube
v 1.000000 0.000000 -1.000000
v 1.000000 0.000000 1.000000
v -1.000000 0.000000 -1.000000
v -1.000000 0.000000 1.000000
v 0.044143 1.093176 -0.044143
v 1.000000 0.137319 -1.000000
v 0.044143 1.093176 0.044143
v 1.000000 0.137319 1.000000
v -0.044143 1.093176 -0.044143
v -1.000000 0.137319 -1.000000
v -0.044143 1.093176 0.044143
v -1.000000 0.137319 1.000000
vn -0.0000 -0.0000 1.0000
vn -1.0000 -0.0000 -0.0000
vn -0.0000 -1.0000 -0.0000
vn -0.0000 1.0000 -0.0000
vn 1.0000 -0.0000 -0.0000
vn -0.0000 0.7071 0.7071
vn 0.7071 0.7071 -0.0000
vn -0.7071 0.7071 -0.0000
vn -0.0000 0.7071 -0.7071
vn -0.0000 -0.0000 -1.0000
vt 0.505518 0.750000
vt 0.375000 1.000000
vt 0.375000 0.750000
vt 0.505518 0.000000
vt 0.375000 0.250000
vt 0.375000 0.000000
vt 0.375000 0.500000
vt 0.125000 0.750000
vt 0.125000 0.500000
vt 0.755518 0.619482
vt 0.744482 0.630518
vt 0.744482 0.619482
vt 0.505518 0.500000
vt 0.755518 0.630518
vt 0.625000 0.750000
vt 0.875000 0.750000
vt 0.875000 0.500000
vt 0.505518 0.250000
vt 0.505518 1.000000
vt 0.625000 0.500000
s 0
usemtl Material
f 8/1/1 4/2/1 2/3/1
f 12/4/2 3/5/2 4/6/2
f 1/7/3 4/8/3 3/9/3
f 9/10/4 7/11/4 5/12/4
f 6/13/5 2/3/5 1/7/5
f 11/14/6 8/15/6 7/11/6
f 7/11/7 6/13/7 5/12/7
f 9/10/8 12/16/8 11/14/8
f 5/12/9 10/17/9 9/10/9
f 10/18/10 1/7/10 3/5/10
f 8/1/1 12/19/1 4/2/1
f 12/4/2 10/18/2 3/5/2
f 1/7/3 2/3/3 4/8/3
f 9/10/4 11/14/4 7/11/4
f 6/13/5 8/1/5 2/3/5
f 11/14/6 12/16/6 8/15/6
f 7/11/7 8/1/7 6/13/7
f 9/10/8 10/17/8 12/16/8
f 5/12/9 6/20/9 10/17/9
f 10/18/10 6/13/10 1/7/10
