# Blender 4.0.2
# www.blender.org
mtllib Player.mtl
o 立方体
v -0.095916 0.985950 1.040455
v -0.175440 0.854207 0.360712
v -0.062163 1.262315 1.044997
v -0.318274 1.433661 0.524493
v -0.181471 0.957413 -1.531827
v -0.263010 1.532127 -0.538765
v 0.000000 0.957413 -1.531827
v 0.000000 1.629425 -0.545119
v 0.000000 0.980901 1.040455
v 0.000000 0.777886 0.559559
v 0.000000 1.658199 0.470758
v 0.000697 1.262315 1.044997
v -0.163039 1.383593 -0.894164
v -0.196637 0.849311 -1.124155
v 0.000000 0.799383 -1.190499
v -0.143977 1.301087 -1.397068
v 0.000000 1.455300 -1.048148
v -0.153109 1.210141 -1.511283
v 0.000000 1.364517 -1.508687
v -0.280760 1.069665 -1.064035
v -0.364517 1.040153 -1.385441
v -0.160723 1.125203 1.044997
v -0.284518 1.083487 -1.066220
v -0.364473 1.097167 -1.388036
v -0.334217 1.150792 0.524493
v -0.047887 1.658199 0.470758
v -0.097882 1.629425 -0.545119
v -0.056798 1.455300 -1.048148
v -0.081258 1.364517 -1.508687
v 0.000000 2.009049 -1.377199
v 0.003407 1.912569 -1.537917
v -0.022053 2.009049 -1.377199
v -0.032964 1.912569 -1.537917
v -0.097882 2.219735 -0.272749
v 0.000000 2.219735 -0.272749
v 0.000000 2.197046 0.274042
v -0.047887 2.197046 0.274042
v -0.270851 1.557333 0.000768
v -0.205980 1.697790 0.000000
v 0.000000 2.236636 -0.000089
v -0.205980 2.236636 -0.000089
v -0.552421 1.062669 -1.346439
v -0.673973 1.066531 -1.336673
v -0.677731 1.088872 -1.338858
v -0.552378 1.094904 -1.349034
v -0.239472 0.904470 0.523234
v -0.263936 0.898747 -1.190499
v -0.121391 0.814330 0.247047
v -0.121391 0.808941 -1.124154
v -0.065520 0.711515 -1.122432
v -0.065520 0.716904 0.248768
v 0.000825 0.552334 -1.188777
v 0.000825 0.584482 0.275455
v 0.095916 0.985950 1.040455
v 0.175440 0.854207 0.360712
v 0.062163 1.262315 1.044997
v 0.318274 1.433661 0.524493
v 0.181471 0.957413 -1.531827
v 0.263010 1.532127 -0.538765
v -0.000697 1.262315 1.044997
v 0.163039 1.383593 -0.894164
v 0.196637 0.849311 -1.124155
v 0.143977 1.301087 -1.397068
v 0.153109 1.210141 -1.511283
v 0.280760 1.069665 -1.064035
v 0.364517 1.040153 -1.385441
v 0.160723 1.125203 1.044997
v 0.284518 1.083487 -1.066220
v 0.364473 1.097167 -1.388036
v 0.334217 1.150792 0.524493
v 0.047887 1.658199 0.470758
v 0.097882 1.629425 -0.545119
v 0.056798 1.455300 -1.048148
v 0.081258 1.364517 -1.508687
v -0.003407 1.912569 -1.537917
v 0.022053 2.009049 -1.377199
v 0.032964 1.912569 -1.537917
v 0.097882 2.219735 -0.272749
v 0.047887 2.197046 0.274042
v 0.270851 1.557333 0.000768
v 0.205980 1.697790 0.000000
v 0.205980 2.236636 -0.000089
v 0.552421 1.062669 -1.346439
v 0.673973 1.066531 -1.336673
v 0.677731 1.088872 -1.338858
v 0.552378 1.094904 -1.349034
v 0.239472 0.904470 0.523234
v 0.263936 0.898747 -1.190499
v 0.121391 0.814330 0.247047
v 0.121391 0.808941 -1.124154
v 0.065520 0.711515 -1.122432
v 0.065520 0.716904 0.248768
v -0.000825 0.552334 -1.188777
v -0.000825 0.584482 0.275455
vn -0.8588 0.3984 0.3219
vn -0.7309 -0.0918 0.6762
vn -0.7779 0.5592 0.2868
vn -0.4876 -0.0393 -0.8722
vn -0.0000 -0.9075 -0.4201
vn -0.4817 -0.8352 0.2653
vn -0.6123 0.6416 -0.4619
vn 0.0137 -0.0162 0.9998
vn -0.8999 0.4237 -0.1036
vn -0.8951 -0.3457 0.2814
vn -0.8744 0.4113 -0.2576
vn -0.0000 0.8233 0.5676
vn -0.0000 0.3429 0.9394
vn -0.0000 0.8574 -0.5147
vn -0.0000 0.5108 0.8597
vn -0.9954 0.0896 0.0352
vn -0.0000 0.9897 0.1429
vn -0.0000 0.4190 -0.9080
vn -0.8663 0.0001 0.4996
vn -0.9742 0.0946 -0.2050
vn -0.0000 0.9981 -0.0619
vn -0.5027 0.8398 -0.2050
vn -0.4662 0.7619 -0.4496
vn -0.2017 -0.0783 -0.9763
vn -0.0831 -0.1108 -0.9904
vn -0.0945 -0.9888 0.1154
vn -0.5695 -0.0249 0.8216
vn -0.0415 0.9960 0.0795
vn -0.4728 -0.8812 0.0035
vn -0.4756 -0.8757 0.0835
vn -0.3139 -0.8338 -0.4542
vn -0.5991 -0.8006 0.0112
vn -0.8675 -0.4974 0.0020
vn -0.8942 -0.4477 0.0018
vn -0.8829 -0.3894 0.2625
vn -0.4766 -0.2880 -0.8306
vn -0.0000 -0.0533 -0.9986
vn -0.6186 0.7753 0.1271
vn -0.9967 -0.0762 -0.0296
vn -0.5679 -0.7773 -0.2708
vn -0.9955 0.0561 -0.0769
vn -0.9937 0.1049 -0.0388
vn -0.9201 -0.2875 0.2662
vn -0.9982 0.0579 -0.0172
vn -0.9332 -0.3590 0.0145
vn -0.8895 0.0501 0.4542
vn -0.0000 0.0168 -0.9999
vn -0.0403 0.0567 -0.9976
vn -0.0000 0.0810 -0.9967
vn -0.5825 0.1306 -0.8022
vn -0.3421 -0.9088 -0.2389
vn -0.0484 -0.9202 0.3885
vn -0.6616 0.7240 0.1952
vn -0.0000 -0.0000 1.0000
vn -0.0018 -0.0334 0.9994
vn -0.7486 0.5100 -0.4237
vn -0.8601 -0.4102 0.3033
vn -0.7769 0.6243 -0.0818
vn -0.5007 0.7185 0.4829
vn -0.9969 0.0757 0.0222
vn -0.9382 0.1187 0.3251
vn -0.9296 -0.0001 -0.3685
vn -0.9074 0.4189 -0.0328
vn -0.0000 0.8176 -0.5758
vn -0.5867 0.7652 -0.2649
vn -0.6876 0.7119 -0.1429
vn -0.0000 0.9065 0.4222
vn -0.2081 -0.0443 -0.9771
vn -0.0768 -0.0799 -0.9938
vn -0.0276 -0.9983 0.0513
vn -0.5699 -0.0155 0.8216
vn -0.0031 0.9991 0.0432
vn -0.5787 -0.8155 0.0109
vn -0.4743 -0.8766 0.0820
vn -0.4655 -0.8677 -0.1743
vn -0.5996 -0.8002 0.0112
vn -0.9217 -0.3877 0.0085
vn -0.8374 -0.4754 0.2698
vn -0.7157 -0.0073 -0.6983
vn 0.8588 0.3984 0.3219
vn 0.7309 -0.0918 0.6762
vn 0.7779 0.5592 0.2868
vn 0.4876 -0.0393 -0.8722
vn 0.4817 -0.8352 0.2653
vn 0.6123 0.6416 -0.4619
vn -0.0137 -0.0162 0.9998
vn 0.8999 0.4237 -0.1036
vn 0.8951 -0.3457 0.2814
vn 0.8744 0.4113 -0.2576
vn 0.9954 0.0896 0.0352
vn 0.8663 0.0001 0.4996
vn 0.9742 0.0946 -0.2050
vn 0.5027 0.8398 -0.2050
vn 0.4662 0.7619 -0.4496
vn 0.2017 -0.0783 -0.9763
vn 0.0831 -0.1108 -0.9904
vn 0.0945 -0.9888 0.1154
vn 0.5695 -0.0249 0.8216
vn 0.0415 0.9960 0.0795
vn 0.4728 -0.8812 0.0035
vn 0.4756 -0.8757 0.0835
vn 0.3139 -0.8338 -0.4542
vn 0.5991 -0.8006 0.0112
vn 0.8675 -0.4974 0.0020
vn 0.8942 -0.4477 0.0018
vn 0.8829 -0.3894 0.2625
vn 0.4766 -0.2880 -0.8306
vn 0.6186 0.7753 0.1271
vn 0.9967 -0.0762 -0.0296
vn 0.5679 -0.7773 -0.2708
vn 0.9955 0.0561 -0.0769
vn 0.9937 0.1049 -0.0388
vn 0.9201 -0.2875 0.2662
vn 0.9982 0.0579 -0.0172
vn 0.9332 -0.3590 0.0145
vn 0.8895 0.0501 0.4542
vn 0.0403 0.0567 -0.9976
vn 0.5825 0.1306 -0.8022
vn 0.3421 -0.9088 -0.2389
vn 0.0484 -0.9202 0.3885
vn 0.6616 0.7240 0.1952
vn 0.0018 -0.0334 0.9994
vn 0.7486 0.5100 -0.4237
vn 0.8601 -0.4102 0.3033
vn 0.7769 0.6243 -0.0818
vn 0.5007 0.7185 0.4829
vn 0.9969 0.0757 0.0222
vn 0.9382 0.1187 0.3251
vn 0.9296 -0.0001 -0.3685
vn 0.9074 0.4189 -0.0328
vn 0.5867 0.7652 -0.2649
vn 0.6876 0.7119 -0.1429
vn 0.2081 -0.0443 -0.9771
vn 0.0768 -0.0799 -0.9938
vn 0.0276 -0.9983 0.0513
vn 0.5699 -0.0155 0.8216
vn 0.0031 0.9991 0.0432
vn 0.5787 -0.8155 0.0109
vn 0.4743 -0.8766 0.0820
vn 0.4655 -0.8677 -0.1743
vn 0.5996 -0.8002 0.0112
vn 0.9217 -0.3877 0.0085
vn 0.8374 -0.4754 0.2698
vn 0.7157 -0.0073 -0.6983
vt 0.584808 0.658647
vt 0.686951 0.693086
vt 0.586186 0.690374
vt 0.399452 0.650206
vt 0.362659 0.584333
vt 0.363742 0.581702
vt 0.881959 0.622534
vt 0.753702 0.598534
vt 0.870269 0.591526
vt 0.206832 0.416925
vt 0.205004 0.438206
vt 0.110976 0.474689
vt 0.313455 0.434954
vt 0.256662 0.489971
vt 0.245854 0.457356
vt 0.811655 0.468245
vt 0.877677 0.564535
vt 0.765572 0.528230
vt 0.299409 0.572802
vt 0.294381 0.632768
vt 0.269734 0.616564
vt 0.896755 0.627338
vt 0.899881 0.557003
vt 0.271280 0.650046
vt 0.803573 0.760416
vt 0.794430 0.754027
vt 0.723270 0.752598
vt 0.658492 0.831457
vt 0.715412 0.747253
vt 0.254778 0.830611
vt 0.207437 0.828813
vt 0.214128 0.818724
vt 0.340998 0.685455
vt 0.323509 0.676109
vt 0.159489 0.676109
vt 0.615783 0.862522
vt 0.664238 0.838251
vt 0.501201 0.748367
vt 0.564050 0.846042
vt 0.488214 0.759785
vt 0.613552 0.738704
vt 0.613283 0.826096
vt 0.573497 0.831073
vt 0.478208 0.662910
vt 0.473619 0.699809
vt 0.278256 0.325279
vt 0.458359 0.194656
vt 0.463378 0.205760
vt 0.477078 0.195629
vt 0.476853 0.194385
vt 0.522520 0.177535
vt 0.238806 0.211417
vt 0.522638 0.180031
vt 0.617888 0.458896
vt 0.334942 0.470600
vt 0.333343 0.452852
vt 0.640306 0.473057
vt 0.681146 0.438310
vt 0.671815 0.489971
vt 0.324016 0.487296
vt 0.336345 0.429201
vt 0.618006 0.436588
vt 0.622640 0.407804
vt 0.134484 0.688435
vt 0.687980 0.621857
vt 0.334978 0.550118
vt 0.682105 0.565692
vt 0.263675 0.549251
vt 0.297102 0.586145
vt 0.676268 0.513154
vt 0.757156 0.669836
vt 0.084040 0.532450
vt 0.053629 0.532426
vt 0.053629 0.379822
vt 0.121544 0.379789
vt 0.363991 0.672194
vt 0.257782 0.836675
vt 0.465618 0.717292
vt 0.363832 0.683414
vt 0.330683 0.394344
s 0
usemtl マテリアル
f 38/1/1 26/2/1 39/3/1
f 13/4/2 23/5/2 20/6/2
f 3/7/3 25/8/3 22/9/3
f 21/10/4 24/11/4 18/12/4
f 15/13/5 5/14/5 7/15/5
f 10/16/6 1/17/6 46/18/6
f 24/19/7 16/20/7 18/21/7
f 12/22/8 22/9/8 9/23/8
f 23/5/9 13/4/9 16/20/9
f 46/18/10 22/9/10 25/8/10
f 16/20/11 29/24/11 18/21/11
f 12/22/12 11/25/12 26/26/12
f 11/27/13 37/28/13 26/29/13
f 32/30/14 31/31/14 33/32/14
f 17/33/15 32/30/15 28/34/15
f 28/34/16 33/32/16 29/35/16
f 40/36/17 37/28/17 36/37/17
f 27/38/18 35/39/18 8/40/18
f 39/41/19 37/28/19 41/42/19
f 39/41/20 34/43/20 27/38/20
f 34/43/21 40/36/21 35/39/21
f 6/44/22 39/3/22 27/45/22
f 13/4/23 6/44/23 27/45/23
f 24/46/24 42/47/24 45/48/24
f 44/49/25 42/47/25 43/50/25
f 20/51/26 42/47/26 21/52/26
f 23/53/27 43/50/27 20/51/27
f 23/53/28 45/48/28 44/49/28
f 48/54/29 14/55/29 49/56/29
f 2/57/30 10/58/30 46/59/30
f 49/56/31 47/60/31 15/13/31
f 2/57/32 47/60/32 14/55/32
f 48/54/33 50/61/33 51/62/33
f 50/61/34 53/63/34 51/62/34
f 10/58/35 51/62/35 53/63/35
f 15/13/36 50/61/36 49/56/36
f 19/64/37 33/32/37 31/31/37
f 38/1/38 4/65/38 26/2/38
f 47/66/39 25/67/39 20/6/39
f 5/68/40 47/66/40 21/69/40
f 25/67/41 4/65/41 38/1/41
f 20/6/42 25/67/42 38/1/42
f 20/6/43 21/69/43 47/66/43
f 38/1/44 6/44/44 20/6/44
f 47/66/45 46/70/45 25/67/45
f 3/7/46 4/71/46 25/8/46
f 18/12/47 29/72/47 19/73/47
f 19/73/48 7/74/48 18/12/48
f 7/74/49 5/75/49 18/12/49
f 5/75/50 21/10/50 18/12/50
f 15/13/51 47/60/51 5/14/51
f 10/16/52 9/23/52 1/17/52
f 24/19/53 23/5/53 16/20/53
f 3/7/54 22/9/54 12/22/54
f 22/9/55 1/17/55 9/23/55
f 6/44/56 13/4/56 20/6/56
f 46/18/57 1/17/57 22/9/57
f 16/20/58 28/76/58 29/24/58
f 4/71/59 3/7/59 26/26/59
f 3/7/12 12/22/12 26/26/12
f 11/27/13 36/37/13 37/28/13
f 32/30/14 30/77/14 31/31/14
f 17/33/15 30/77/15 32/30/15
f 28/34/60 32/30/60 33/32/60
f 40/36/17 41/42/17 37/28/17
f 27/38/18 34/43/18 35/39/18
f 39/41/61 26/29/61 37/28/61
f 39/41/62 41/42/62 34/43/62
f 34/43/21 41/42/21 40/36/21
f 6/44/63 38/1/63 39/3/63
f 27/45/64 8/78/64 13/4/64
f 8/78/65 17/79/65 13/4/65
f 28/76/66 16/20/66 13/4/66
f 17/79/67 28/76/67 13/4/67
f 24/46/68 21/52/68 42/47/68
f 44/49/69 45/48/69 42/47/69
f 20/51/70 43/50/70 42/47/70
f 23/53/71 44/49/71 43/50/71
f 23/53/72 24/46/72 45/48/72
f 48/54/73 2/57/73 14/55/73
f 2/57/74 48/54/74 10/58/74
f 49/56/75 14/55/75 47/60/75
f 2/57/76 46/59/76 47/60/76
f 48/54/33 49/56/33 50/61/33
f 50/61/77 52/80/77 53/63/77
f 10/58/78 48/54/78 51/62/78
f 15/13/79 52/80/79 50/61/79
f 19/64/37 29/35/37 33/32/37
f 80/1/80 81/3/80 71/2/80
f 61/4/81 65/6/81 68/5/81
f 56/7/82 67/9/82 70/8/82
f 66/10/83 64/12/83 69/11/83
f 15/13/5 7/15/5 58/14/5
f 10/16/84 87/18/84 54/17/84
f 69/19/85 64/21/85 63/20/85
f 60/22/86 9/23/86 67/9/86
f 68/5/87 63/20/87 61/4/87
f 87/18/88 70/8/88 67/9/88
f 63/20/89 64/21/89 74/24/89
f 60/22/12 71/26/12 11/25/12
f 11/27/13 71/29/13 79/28/13
f 76/30/14 77/32/14 75/31/14
f 17/33/15 73/34/15 76/30/15
f 73/34/90 74/35/90 77/32/90
f 40/36/17 36/37/17 79/28/17
f 72/38/18 8/40/18 35/39/18
f 81/41/91 82/42/91 79/28/91
f 81/41/92 72/38/92 78/43/92
f 78/43/21 35/39/21 40/36/21
f 59/44/93 72/45/93 81/3/93
f 61/4/94 72/45/94 59/44/94
f 69/46/95 86/48/95 83/47/95
f 85/49/96 84/50/96 83/47/96
f 65/51/97 66/52/97 83/47/97
f 68/53/98 65/51/98 84/50/98
f 68/53/99 85/49/99 86/48/99
f 89/54/100 90/56/100 62/55/100
f 55/57/101 87/59/101 10/58/101
f 90/56/102 15/13/102 88/60/102
f 55/57/103 62/55/103 88/60/103
f 89/54/104 92/62/104 91/61/104
f 91/61/105 92/62/105 94/63/105
f 10/58/106 94/63/106 92/62/106
f 15/13/107 90/56/107 91/61/107
f 19/64/37 75/31/37 77/32/37
f 80/1/108 71/2/108 57/65/108
f 88/66/109 65/6/109 70/67/109
f 58/68/110 66/69/110 88/66/110
f 70/67/111 80/1/111 57/65/111
f 65/6/112 80/1/112 70/67/112
f 65/6/113 88/66/113 66/69/113
f 80/1/114 65/6/114 59/44/114
f 88/66/115 70/67/115 87/70/115
f 56/7/116 70/8/116 57/71/116
f 64/12/47 19/73/47 74/72/47
f 19/73/117 64/12/117 7/74/117
f 7/74/49 64/12/49 58/75/49
f 58/75/118 64/12/118 66/10/118
f 15/13/119 58/14/119 88/60/119
f 10/16/120 54/17/120 9/23/120
f 69/19/121 63/20/121 68/5/121
f 56/7/54 60/22/54 67/9/54
f 67/9/122 9/23/122 54/17/122
f 59/44/123 65/6/123 61/4/123
f 87/18/124 67/9/124 54/17/124
f 63/20/125 74/24/125 73/76/125
f 57/71/126 71/26/126 56/7/126
f 56/7/12 71/26/12 60/22/12
f 11/27/13 79/28/13 36/37/13
f 76/30/14 75/31/14 30/77/14
f 17/33/15 76/30/15 30/77/15
f 73/34/127 77/32/127 76/30/127
f 40/36/17 79/28/17 82/42/17
f 72/38/18 35/39/18 78/43/18
f 81/41/128 79/28/128 71/29/128
f 81/41/129 78/43/129 82/42/129
f 78/43/21 40/36/21 82/42/21
f 59/44/130 81/3/130 80/1/130
f 72/45/64 61/4/64 8/78/64
f 8/78/131 61/4/131 17/79/131
f 73/76/132 61/4/132 63/20/132
f 17/79/67 61/4/67 73/76/67
f 69/46/133 83/47/133 66/52/133
f 85/49/134 83/47/134 86/48/134
f 65/51/135 83/47/135 84/50/135
f 68/53/136 84/50/136 85/49/136
f 68/53/137 86/48/137 69/46/137
f 89/54/138 62/55/138 55/57/138
f 55/57/139 10/58/139 89/54/139
f 90/56/140 88/60/140 62/55/140
f 55/57/141 88/60/141 87/59/141
f 89/54/104 91/61/104 90/56/104
f 91/61/142 94/63/142 93/80/142
f 10/58/143 92/62/143 89/54/143
f 15/13/144 91/61/144 93/80/144
f 19/64/37 77/32/37 74/35/37
