# Blender 4.0.2
# www.blender.org
mtllib GlobeFish.mtl
o 円柱
v 0.000000 1.358276 1.212992
v 0.000000 1.650038 0.566900
v 0.144943 1.262695 1.212992
v 0.389490 1.404968 0.566900
v 0.125694 1.076151 1.212992
v 0.448028 1.146458 0.566900
v 0.115920 0.961478 1.212992
v 0.270075 0.853542 0.566900
v 0.109942 0.906871 1.212992
v 0.222269 0.726005 0.486200
v 0.000000 0.599208 0.566900
v 0.000000 0.826168 1.212992
v 0.000000 1.615992 -0.817262
v 0.000000 1.539475 -1.432897
v 0.181973 1.362685 -0.798555
v 0.026103 1.517801 -1.420260
v 0.250487 1.146453 -0.814539
v 0.074206 1.064303 -1.336411
v 0.295964 1.057280 -0.817262
v 0.068072 0.935697 -1.356727
v 0.219188 0.914940 -0.817262
v 0.020728 0.534176 -1.466015
v 0.000000 0.384785 -1.485000
v 0.043064 0.588256 -0.808257
v 0.000000 1.540162 -1.050292
v 0.060924 1.499044 -1.050292
v 0.065032 1.105380 -1.050292
v 0.065032 0.894620 -1.050292
v 0.051689 0.629089 -1.050292
v 0.046465 1.675599 -1.348864
v 0.187267 1.084842 -1.254982
v 0.187267 0.915158 -1.254982
v 0.023512 0.650435 -1.254982
v 0.000000 0.582330 -1.254982
v 0.000000 1.861398 -1.464899
v 0.000000 0.987786 -1.386752
v 0.000000 1.146431 -1.357745
v 0.000000 1.876104 -0.184910
v 0.476156 1.574106 -0.037006
v 0.546510 1.146458 -0.037006
v 0.374501 0.853542 -0.037006
v 0.485542 0.542094 0.090719
v 0.000000 0.544445 -0.037006
v 0.000000 1.876104 0.329282
v 0.401696 1.489537 0.264947
v 0.472050 1.146458 0.264947
v 0.537182 0.853542 0.264947
v 0.663012 0.538454 0.246305
v 0.000000 0.631717 0.264947
v 0.328885 1.500430 -0.341682
v 0.397400 1.146458 -0.357666
v 0.335233 0.853542 -0.338959
v 0.322180 0.703472 -0.338959
v 0.000000 0.576954 -0.338959
v 0.000000 1.729197 -0.496789
v 0.191342 1.602678 0.566900
v 0.072472 1.319178 1.212992
v 0.111134 0.703497 0.566900
v 0.086836 0.886248 1.212992
v 0.126813 1.579023 -0.836105
v 0.193942 0.813583 -0.817262
v 0.077010 0.805717 -1.050292
v 0.030462 1.519603 -1.050292
v 0.023233 1.768499 -1.406881
v 0.144438 0.607704 -0.037006
v 0.152073 1.687248 -0.037006
v 0.127786 0.694976 0.264947
v 0.171708 1.644963 0.264947
v 0.132439 1.729532 -0.338959
v 0.161090 0.640213 -0.338959
v 0.259609 0.625400 0.335191
v 0.321375 0.654451 0.043235
v -0.144943 1.262695 1.212992
v -0.389490 1.404968 0.566900
v -0.125694 1.076151 1.212992
v -0.448028 1.146458 0.566900
v -0.115920 0.961478 1.212992
v -0.270075 0.853542 0.566900
v -0.109942 0.906871 1.212992
v -0.222269 0.726005 0.486200
v -0.181973 1.362685 -0.798555
v -0.026103 1.517801 -1.420260
v -0.250487 1.146453 -0.814539
v -0.074206 1.064303 -1.336411
v -0.295964 1.057280 -0.817262
v -0.068072 0.935697 -1.356727
v -0.219188 0.914940 -0.817262
v -0.020728 0.534176 -1.466015
v -0.043064 0.588256 -0.808257
v -0.060924 1.499044 -1.050292
v -0.065032 1.105380 -1.050292
v -0.065032 0.894620 -1.050292
v -0.051689 0.629089 -1.050292
v -0.046465 1.675599 -1.348864
v -0.187267 1.084842 -1.254982
v -0.187267 0.915158 -1.254982
v -0.023512 0.650435 -1.254982
v -0.476156 1.574106 -0.037006
v -0.546510 1.146458 -0.037006
v -0.374501 0.853542 -0.037006
v -0.485542 0.542094 0.090719
v -0.401696 1.489537 0.264947
v -0.472050 1.146458 0.264947
v -0.537182 0.853542 0.264947
v -0.663012 0.538454 0.246305
v -0.328885 1.500430 -0.341682
v -0.397400 1.146458 -0.357666
v -0.335233 0.853542 -0.338959
v -0.322180 0.703472 -0.338959
v -0.191342 1.602678 0.566900
v -0.072472 1.319178 1.212992
v -0.111134 0.703497 0.566900
v -0.086836 0.886248 1.212992
v -0.126813 1.579023 -0.836105
v -0.193942 0.813583 -0.817262
v -0.077010 0.805717 -1.050292
v -0.030462 1.519603 -1.050292
v -0.023233 1.768499 -1.406881
v -0.144438 0.607704 -0.037006
v -0.152073 1.687248 -0.037006
v -0.127786 0.694976 0.264947
v -0.171708 1.644963 0.264947
v -0.132439 1.729532 -0.338959
v -0.161090 0.640213 -0.338959
v -0.259609 0.625400 0.335191
v -0.321375 0.654451 0.043235
vn 0.2794 0.8855 -0.3713
vn 0.5714 -0.3534 -0.7407
vn 0.8465 0.4568 -0.2734
vn 0.9738 -0.1776 -0.1422
vn 0.8508 0.1215 -0.5113
vn 0.5741 -0.8186 -0.0167
vn 0.8487 -0.4578 -0.2647
vn -0.0000 -0.0000 1.0000
vn 0.4381 -0.8572 0.2706
vn 0.3299 -0.9383 -0.1034
vn 0.6188 0.0407 -0.7845
vn 0.6187 0.0407 -0.7845
vn 0.9136 0.2380 -0.3297
vn 0.8586 -0.0000 0.5127
vn 0.6289 0.7624 0.1524
vn 0.8921 -0.3751 0.2521
vn 0.4252 0.8772 0.2229
vn 0.7742 -0.4176 -0.4757
vn 0.6102 0.7180 0.3349
vn 0.3811 -0.9203 -0.0886
vn 0.8937 0.3762 0.2444
vn 0.4555 -0.8897 -0.0321
vn 0.1492 -0.1743 -0.9733
vn 0.8834 0.1659 -0.4382
vn 0.8894 -0.3950 -0.2302
vn -1.0000 -0.0000 -0.0000
vn 0.9773 -0.0513 -0.2057
vn 0.9773 -0.0513 -0.2058
vn 0.9521 -0.1451 -0.2691
vn 0.9528 0.1646 0.2551
vn 0.6136 -0.5735 0.5428
vn 0.9503 0.1735 0.2586
vn 0.8527 -0.5180 0.0678
vn 0.6283 0.6690 0.3971
vn 0.6188 -0.7454 0.2480
vn 0.8581 -0.3952 0.3279
vn 0.4065 -0.8747 0.2640
vn 0.2838 0.8660 0.4116
vn 0.9740 0.2087 0.0876
vn 0.9880 -0.0859 -0.1285
vn -0.5400 -0.8347 -0.1082
vn 0.2199 0.9198 -0.3249
vn -0.0609 -0.8376 0.5429
vn 0.4512 0.8074 -0.3803
vn 0.3195 0.1773 -0.9309
vn -0.1711 -0.9700 0.1724
vn 0.8526 0.4131 0.3201
vn 0.7877 0.1961 -0.5840
vn 0.5401 0.8003 -0.2604
vn 0.5386 0.8207 -0.1906
vn 0.5386 0.8207 -0.1907
vn 0.6750 -0.7325 -0.0887
vn 0.9124 0.0638 -0.4042
vn 0.9690 -0.1934 -0.1536
vn 0.7174 0.1150 -0.6871
vn 0.7174 0.1150 -0.6872
vn 0.7907 0.6121 0.0127
vn -0.4665 -0.8845 -0.0008
vn 0.9079 0.0802 0.4115
vn -0.1132 -0.9902 0.0821
vn 0.9893 -0.1330 0.0602
vn 0.8731 0.0030 -0.4876
vn 0.5924 -0.0853 -0.8011
vn 0.9674 -0.2092 0.1428
vn 0.7309 0.2777 -0.6234
vn 0.8644 -0.0603 -0.4991
vn 0.8644 -0.0603 -0.4992
vn 0.5076 0.7522 0.4202
vn 0.4516 0.1416 -0.8809
vn 0.5235 0.1595 0.8370
vn 0.7388 0.1643 0.6536
vn 0.9362 0.2220 -0.2726
vn 0.3280 0.9031 -0.2771
vn 0.7623 0.6459 0.0409
vn -0.5158 -0.8349 -0.1922
vn 0.4866 0.7210 0.4934
vn 0.8840 -0.3794 0.2733
vn 0.3489 -0.8885 -0.2981
vn 0.5331 -0.6373 0.5564
vn 0.8912 -0.3648 -0.2696
vn -0.2794 0.8855 -0.3713
vn -0.5714 -0.3534 -0.7407
vn -0.8465 0.4568 -0.2734
vn -0.9738 -0.1776 -0.1422
vn -0.8508 0.1215 -0.5113
vn -0.5741 -0.8186 -0.0167
vn -0.8487 -0.4578 -0.2647
vn -0.4381 -0.8572 0.2706
vn -0.3299 -0.9383 -0.1034
vn -0.6187 0.0407 -0.7845
vn -0.9136 0.2380 -0.3297
vn -0.8586 -0.0000 0.5127
vn -0.6289 0.7624 0.1524
vn -0.8921 -0.3751 0.2520
vn -0.4252 0.8772 0.2229
vn -0.7742 -0.4176 -0.4757
vn -0.6102 0.7180 0.3349
vn -0.6101 0.7180 0.3349
vn -0.3811 -0.9203 -0.0886
vn -0.8937 0.3762 0.2444
vn -0.4555 -0.8897 -0.0321
vn -0.1492 -0.1743 -0.9733
vn -0.8834 0.1659 -0.4382
vn -0.8894 -0.3950 -0.2302
vn -0.9773 -0.0513 -0.2057
vn -0.9521 -0.1450 -0.2691
vn -0.9528 0.1646 0.2551
vn -0.6136 -0.5735 0.5428
vn -0.9503 0.1735 0.2586
vn -0.8527 -0.5180 0.0678
vn -0.6283 0.6689 0.3971
vn -0.6189 -0.7453 0.2480
vn -0.8581 -0.3952 0.3279
vn -0.4065 -0.8747 0.2640
vn -0.2838 0.8660 0.4117
vn -0.2838 0.8660 0.4116
vn -0.9740 0.2087 0.0877
vn -0.9880 -0.0859 -0.1285
vn 0.5400 -0.8347 -0.1082
vn -0.2199 0.9198 -0.3249
vn 0.0609 -0.8376 0.5429
vn -0.4512 0.8074 -0.3803
vn -0.3195 0.1772 -0.9308
vn -0.3195 0.1773 -0.9308
vn 0.1711 -0.9700 0.1724
vn -0.8526 0.4131 0.3201
vn -0.7877 0.1961 -0.5840
vn -0.5401 0.8003 -0.2604
vn -0.5386 0.8207 -0.1906
vn -0.5386 0.8207 -0.1907
vn -0.6750 -0.7325 -0.0887
vn -0.6750 -0.7325 -0.0886
vn -0.9124 0.0638 -0.4042
vn -0.9690 -0.1933 -0.1536
vn -0.7174 0.1150 -0.6872
vn -0.7907 0.6121 0.0127
vn 0.4665 -0.8845 -0.0008
vn -0.9079 0.0801 0.4115
vn 0.1132 -0.9902 0.0821
vn -0.9893 -0.1330 0.0602
vn -0.8731 0.0030 -0.4876
vn -0.5924 -0.0853 -0.8011
vn -0.9674 -0.2092 0.1428
vn -0.7309 0.2777 -0.6234
vn -0.8644 -0.0603 -0.4992
vn -0.8644 -0.0603 -0.4991
vn -0.5076 0.7522 0.4202
vn -0.4516 0.1416 -0.8809
vn -0.5235 0.1595 0.8370
vn -0.7388 0.1643 0.6536
vn -0.9362 0.2220 -0.2726
vn -0.3280 0.9031 -0.2771
vn -0.7623 0.6459 0.0409
vn 0.5158 -0.8349 -0.1922
vn -0.4866 0.7210 0.4934
vn -0.8840 -0.3794 0.2733
vn -0.3489 -0.8885 -0.2981
vn -0.5331 -0.6373 0.5564
vn -0.8912 -0.3648 -0.2696
vn 0.9738 -0.1776 -0.1423
vn 0.9738 -0.1777 -0.1423
vn 0.8921 -0.3751 0.2520
vn 0.6101 0.7180 0.3349
vn 0.9521 -0.1450 -0.2691
vn 0.6283 0.6689 0.3971
vn 0.6189 -0.7453 0.2480
vn 0.2838 0.8660 0.4117
vn 0.9740 0.2087 0.0877
vn 0.3195 0.1772 -0.9308
vn 0.3195 0.1773 -0.9308
vn 0.6750 -0.7325 -0.0886
vn 0.9690 -0.1933 -0.1536
vn 0.9079 0.0801 0.4115
vn -0.9738 -0.1777 -0.1423
vn -0.9738 -0.1776 -0.1423
vn -0.6188 0.0407 -0.7845
vn -0.8921 -0.3751 0.2521
vn -0.9773 -0.0513 -0.2058
vn -0.9521 -0.1451 -0.2691
vn -0.6283 0.6690 0.3971
vn -0.6189 -0.7454 0.2477
vn -0.6188 -0.7454 0.2480
vn -0.9740 0.2087 0.0876
vn -0.3195 0.1773 -0.9309
vn -0.9690 -0.1934 -0.1536
vn -0.7174 0.1150 -0.6871
vn -0.9079 0.0802 0.4115
vt 0.648517 0.608234
vt 0.702172 0.614922
vt 0.650366 0.643596
vt 0.836977 0.393642
vt 0.872608 0.468365
vt 0.833914 0.469759
vt 0.531885 0.581350
vt 0.642246 0.555047
vt 0.389293 0.422012
vt 0.463838 0.502978
vt 0.390826 0.498691
vt 0.834170 0.508263
vt 0.885499 0.623848
vt 0.864170 0.667444
vt 0.388678 0.255072
vt 0.464444 0.262545
vt 0.448463 0.291376
vt 0.541157 0.439848
vt 0.650769 0.463867
vt 0.640929 0.496945
vt 0.126681 0.442236
vt 0.118165 0.458048
vt 0.098708 0.416904
vt 0.228962 0.338624
vt 0.123934 0.439143
vt 0.111618 0.428885
vt 0.545066 0.405386
vt 0.506552 0.331043
vt 0.564497 0.370619
vt 0.870115 0.502657
vt 0.534921 0.508880
vt 0.778124 0.454539
vt 0.773246 0.512244
vt 0.319393 0.616323
vt 0.390894 0.571169
vt 0.391353 0.626326
vt 0.259053 0.408073
vt 0.252271 0.361159
vt 0.460686 0.591237
vt 0.463179 0.634727
vt 0.714923 0.463631
vt 0.308781 0.770338
vt 0.407233 0.709089
vt 0.405026 0.819651
vt 0.583951 0.335712
vt 0.777722 0.628360
vt 0.880911 0.694153
vt 0.644550 0.375704
vt 0.677716 0.399446
vt 0.890179 0.523962
vt 0.726175 0.430714
vt 0.660766 0.436969
vt 0.218277 0.316573
vt 0.100459 0.494053
vt 0.218451 0.591016
vt 0.639358 0.515799
vt 0.779764 0.618375
vt 0.321294 0.059743
vt 0.424477 0.201738
vt 0.291375 0.175305
vt 0.315844 0.430012
vt 0.317224 0.499050
vt 0.255225 0.510943
vt 0.111869 0.487548
vt 0.121685 0.481834
vt 0.235041 0.561900
vt 0.318983 0.550948
vt 0.560692 0.186244
vt 0.646145 0.082047
vt 0.670160 0.136474
vt 0.483796 0.099385
vt 0.508326 0.040126
vt 0.575922 0.669612
vt 0.396700 0.035099
vt 0.443590 0.114641
vt 0.572042 0.790482
vt 0.608673 0.704853
vt 0.671488 0.735418
vt 0.890174 0.482167
vt 0.885600 0.372860
vt 0.896554 0.337157
vt 0.775409 0.638356
vt 0.897509 0.720467
vt 0.703777 0.623337
vt 0.534147 0.643150
vt 0.700496 0.606531
vt 0.585533 0.414512
vt 0.712008 0.514361
vt 0.507953 0.706988
vt 0.418433 0.312010
vt 0.261936 0.468507
vt 0.469616 0.358585
vt 0.893013 0.630243
vt 0.721300 0.441931
vt 0.779030 0.428385
vt 0.377590 0.299351
vt 0.469279 0.434049
vt 0.405681 0.224255
vt 0.306936 0.699622
vt 0.524177 0.299229
s 0
usemtl マテリアル
f 60/1/1 63/2/1 13/3/1
f 33/4/2 20/5/2 32/6/2
f 60/1/3 50/7/3 15/8/3
f 47/9/4 40/10/4 46/11/4
f 31/12/5 16/13/5 30/14/5
f 58/15/6 49/16/6 67/17/6
f 52/18/7 21/19/7 19/20/7
f 7/21/8 5/22/8 12/23/8
f 58/24/9 9/25/9 59/26/9
f 53/27/10 65/28/10 70/29/10
f 32/6/11 18/30/11 31/12/12
f 51/31/13 15/8/13 50/7/13
f 28/32/14 31/12/14 27/33/14
f 56/34/15 45/35/15 68/36/15
f 8/37/16 9/25/16 10/38/16
f 68/36/17 39/39/17 66/40/17
f 21/19/18 28/41/18 19/20/18
f 2/42/19 68/43/19 44/44/19
f 65/28/20 54/45/20 70/29/20
f 63/46/21 30/14/21 64/47/21
f 34/48/22 24/49/22 54/45/22
f 37/50/23 16/13/23 18/30/23
f 40/10/24 50/7/24 39/39/24
f 29/51/25 61/52/25 24/49/25
f 11/53/26 1/54/26 2/55/26
f 51/31/27 19/20/28 17/56/27
f 52/18/29 61/52/29 21/19/29
f 26/57/30 31/12/30 30/14/30
f 10/58/31 47/59/31 8/60/31
f 45/35/32 40/10/32 39/39/32
f 8/61/33 46/11/33 6/62/33
f 4/63/34 57/64/34 3/65/34
f 58/24/35 12/23/35 11/53/35
f 8/37/36 5/22/36 7/21/36
f 49/16/37 65/28/37 67/17/37
f 56/66/38 1/54/38 57/64/38
f 4/67/39 46/11/39 45/35/39
f 41/68/40 53/69/40 52/70/40
f 42/71/41 72/72/41 53/69/41
f 55/73/42 60/1/42 13/3/42
f 10/58/43 71/74/43 48/75/43
f 38/76/44 69/77/44 55/78/44
f 36/79/45 22/80/45 23/81/45
f 71/74/46 42/71/46 48/75/46
f 25/82/47 64/47/47 35/83/47
f 47/59/48 42/71/48 41/68/48
f 13/3/49 63/2/49 25/84/49
f 66/40/50 50/7/51 69/85/51
f 70/29/52 24/49/52 61/52/52
f 15/8/53 26/86/53 60/1/53
f 33/4/54 29/87/54 34/48/54
f 19/20/55 27/88/56 17/56/56
f 44/44/57 66/89/57 38/76/57
f 71/90/58 58/15/58 67/17/58
f 3/65/59 6/91/59 4/63/59
f 72/92/60 67/17/60 65/28/60
f 33/4/61 22/80/61 20/5/61
f 64/47/62 30/14/62 14/93/62
f 31/12/63 18/30/63 16/13/63
f 22/80/64 34/48/64 23/81/64
f 15/8/65 17/56/65 27/88/65
f 28/41/66 61/52/67 62/94/66
f 63/46/68 26/57/68 30/14/68
f 36/79/69 18/30/69 20/5/69
f 10/58/70 48/75/70 47/59/70
f 8/61/71 47/9/71 46/11/71
f 41/68/72 42/71/72 53/69/72
f 55/73/73 69/85/73 60/1/73
f 38/76/74 66/89/74 69/77/74
f 71/74/75 72/72/75 42/71/75
f 25/82/76 63/46/76 64/47/76
f 32/6/77 62/95/77 33/4/77
f 53/27/78 70/29/78 61/52/78
f 71/90/79 10/96/79 58/15/79
f 41/97/80 51/31/80 40/10/80
f 117/2/81 114/1/81 13/3/81
f 97/4/82 96/6/82 86/5/82
f 114/1/83 106/7/83 123/85/83
f 99/10/84 104/9/84 103/11/84
f 95/12/85 94/14/85 82/13/85
f 112/15/86 49/16/86 11/98/86
f 108/18/87 85/20/87 87/19/87
f 111/64/8 73/65/8 75/22/8
f 112/24/88 79/25/88 80/38/88
f 109/27/89 119/28/89 126/92/89
f 96/6/90 84/30/90 86/5/90
f 107/31/91 81/8/91 83/56/91
f 95/12/92 92/32/92 91/33/92
f 110/34/93 102/35/93 74/67/93
f 78/37/94 79/25/94 77/21/94
f 122/36/95 98/39/95 102/35/95
f 87/19/96 85/20/96 92/41/96
f 2/42/97 122/43/98 110/99/98
f 119/28/99 54/45/99 43/100/99
f 117/46/100 118/47/100 94/14/100
f 89/49/101 34/48/101 54/45/101
f 37/50/102 82/13/102 14/93/102
f 99/10/103 106/7/103 107/31/103
f 115/52/104 93/51/104 89/49/104
f 107/31/105 85/20/105 108/18/105
f 108/18/106 115/52/106 109/27/106
f 90/57/107 95/12/107 91/33/107
f 80/58/108 78/60/108 104/59/108
f 102/35/109 99/10/109 103/11/109
f 78/61/110 76/62/110 103/11/110
f 74/63/111 111/64/111 110/66/111
f 112/24/112 12/23/112 113/26/112
f 78/37/113 75/22/113 76/91/113
f 119/28/114 49/16/114 121/17/114
f 110/66/115 1/54/116 2/55/116
f 74/67/117 103/11/117 76/62/117
f 100/68/118 108/70/118 109/69/118
f 101/71/119 109/69/119 126/72/119
f 55/73/120 13/3/120 114/1/120
f 80/58/121 105/75/121 125/74/121
f 38/76/122 55/78/122 123/77/122
f 36/79/123 88/80/124 86/5/124
f 125/74/125 105/75/125 101/71/125
f 25/82/126 35/83/126 118/47/126
f 104/59/127 101/71/127 105/75/127
f 13/3/128 25/84/128 117/2/128
f 120/40/129 106/7/130 98/39/129
f 124/29/131 89/49/132 54/45/131
f 90/86/133 81/8/133 114/1/133
f 97/4/134 93/87/134 116/95/134
f 85/20/135 91/88/135 92/41/135
f 44/44/136 120/89/136 122/43/136
f 125/90/137 121/17/137 112/15/137
f 73/65/138 76/91/138 75/22/138
f 126/92/139 121/17/139 125/90/139
f 97/4/140 86/5/140 88/80/140
f 118/47/141 14/93/141 94/14/141
f 95/12/142 82/13/142 84/30/142
f 88/80/143 34/48/143 97/4/143
f 81/8/144 91/88/144 83/56/144
f 115/52/145 92/41/146 116/94/146
f 117/46/147 94/14/147 90/57/147
f 84/30/148 36/79/148 86/5/148
f 80/58/149 104/59/149 105/75/149
f 78/61/150 103/11/150 104/9/150
f 100/68/151 109/69/151 101/71/151
f 55/73/152 114/1/152 123/85/152
f 38/76/153 123/77/153 120/89/153
f 125/74/154 101/71/154 126/72/154
f 25/82/155 118/47/155 117/46/155
f 116/95/156 96/6/156 97/4/156
f 109/27/157 115/52/157 124/29/157
f 125/90/158 112/15/158 80/96/158
f 100/97/159 107/31/159 108/18/159
f 60/1/1 26/86/1 63/2/1
f 60/1/3 69/85/3 50/7/3
f 47/9/160 41/97/161 40/10/161
f 58/15/6 11/98/6 49/16/6
f 5/22/8 3/65/8 57/64/8
f 57/64/8 1/54/8 5/22/8
f 1/54/8 12/23/8 5/22/8
f 12/23/8 59/26/8 7/21/8
f 59/26/8 9/25/8 7/21/8
f 58/24/9 10/38/9 9/25/9
f 53/27/10 72/92/10 65/28/10
f 32/6/12 20/5/12 18/30/12
f 51/31/13 17/56/13 15/8/13
f 28/32/14 32/6/14 31/12/14
f 56/34/15 4/67/15 45/35/15
f 8/37/162 7/21/162 9/25/162
f 68/36/17 45/35/17 39/39/17
f 2/42/19 56/99/163 68/43/163
f 65/28/20 43/100/20 54/45/20
f 34/48/22 29/87/22 24/49/22
f 37/50/23 14/93/23 16/13/23
f 40/10/24 51/31/24 50/7/24
f 29/51/25 62/94/25 61/52/25
f 11/53/26 12/23/26 1/54/26
f 51/31/27 52/18/27 19/20/27
f 52/18/164 53/27/164 61/52/164
f 26/57/30 27/33/30 31/12/30
f 45/35/32 46/11/32 40/10/32
f 4/63/165 56/66/165 57/64/165
f 58/24/166 59/26/166 12/23/166
f 8/37/36 6/91/36 5/22/36
f 49/16/37 43/100/37 65/28/37
f 56/66/167 2/55/38 1/54/38
f 4/67/168 6/62/168 46/11/168
f 36/79/169 20/5/170 22/80/170
f 47/59/48 48/75/48 42/71/48
f 66/40/50 39/39/50 50/7/51
f 70/29/52 54/45/52 24/49/171
f 15/8/53 27/88/53 26/86/53
f 33/4/172 62/95/172 29/87/172
f 19/20/56 28/41/56 27/88/56
f 44/44/57 68/43/57 66/89/57
f 3/65/173 5/22/173 6/91/173
f 72/92/60 71/90/60 67/17/60
f 16/13/62 14/93/62 30/14/62
f 14/93/62 35/83/62 64/47/62
f 22/80/64 33/4/64 34/48/64
f 28/41/67 21/19/67 61/52/67
f 36/79/69 37/50/69 18/30/69
f 32/6/77 28/32/77 62/95/77
f 41/97/80 52/18/80 51/31/80
f 117/2/81 90/86/81 114/1/81
f 114/1/83 81/8/83 106/7/83
f 99/10/174 100/97/174 104/9/175
f 112/15/86 121/17/86 49/16/86
f 75/22/8 77/21/8 12/23/8
f 77/21/8 79/25/8 113/26/8
f 12/23/8 77/21/8 113/26/8
f 12/23/8 1/54/8 75/22/8
f 1/54/8 111/64/8 75/22/8
f 112/24/88 113/26/88 79/25/88
f 109/27/89 124/29/89 119/28/89
f 96/6/176 95/12/90 84/30/176
f 107/31/91 106/7/91 81/8/91
f 95/12/92 96/6/92 92/32/92
f 110/34/93 122/36/93 102/35/93
f 78/37/177 80/38/177 79/25/177
f 122/36/95 120/40/95 98/39/95
f 2/42/97 44/44/97 122/43/97
f 119/28/99 124/29/99 54/45/99
f 89/49/101 93/87/101 34/48/101
f 37/50/102 84/30/102 82/13/102
f 99/10/103 98/39/103 106/7/103
f 115/52/104 116/94/104 93/51/104
f 107/31/105 83/56/105 85/20/178
f 108/18/179 87/19/179 115/52/179
f 90/57/107 94/14/107 95/12/107
f 102/35/109 98/39/109 99/10/109
f 74/63/180 73/65/180 111/64/180
f 112/24/181 11/53/182 12/23/182
f 78/37/113 77/21/113 75/22/113
f 119/28/114 43/100/114 49/16/114
f 110/66/116 111/64/116 1/54/116
f 74/67/183 102/35/183 103/11/183
f 36/79/184 23/81/184 88/80/184
f 104/59/127 100/68/127 101/71/127
f 120/40/129 123/85/130 106/7/130
f 124/29/131 115/52/131 89/49/131
f 90/86/133 91/88/133 81/8/133
f 97/4/185 34/48/185 93/87/185
f 85/20/186 83/56/135 91/88/135
f 44/44/136 38/76/136 120/89/136
f 73/65/187 74/63/187 76/91/187
f 126/92/139 119/28/139 121/17/139
f 35/83/141 14/93/141 118/47/141
f 14/93/141 82/13/141 94/14/141
f 88/80/143 23/81/143 34/48/143
f 115/52/146 87/19/145 92/41/145
f 84/30/148 37/50/148 36/79/148
f 116/95/156 92/32/156 96/6/156
f 100/97/159 99/10/159 107/31/159
