# Blender 4.0.2
# www.blender.org
mtllib Spawner.mtl
o 立方体
v -1.021628 2.131775 1.021628
v -1.021628 2.131775 -1.021628
v 1.021628 2.131775 1.021628
v 1.021628 2.131775 -1.021628
v -2.190375 1.000000 2.190375
v -2.190375 1.000000 -2.190375
v 2.190375 1.000000 -2.190375
v 2.190375 1.000000 2.190375
v -1.244060 2.298576 1.244060
v -1.246441 1.695999 -1.474428
v 1.479993 1.691506 -1.242944
v 1.240371 1.688200 1.484088
v -0.700781 1.637028 0.700781
v -0.700781 1.637028 -0.700781
v 0.700781 1.637028 -0.700781
v 0.700781 1.652832 0.700781
v -0.871505 1.746815 0.871505
v -0.871505 1.746815 -0.871505
v 0.871505 1.746815 -0.871505
v 0.871505 1.746815 0.871505
v -1.240371 1.688200 1.484088
v -1.244060 2.298576 -1.244060
v 1.244060 2.298576 -1.244060
v 1.244060 2.298576 1.244060
v 1.706629 1.311800 1.950347
v -1.706629 1.311800 1.950347
v 1.954442 1.308494 -1.717393
v -1.732020 1.304001 -1.960007
v -1.966811 1.298508 1.749905
v -1.467623 1.701492 1.250717
v 1.479993 1.691506 1.242944
v 1.954442 1.308494 1.717393
v 1.246441 1.695999 -1.474428
v 1.732020 1.304001 -1.960007
v 1.334422 1.809023 1.334422
v 2.100013 1.190977 2.100013
v -1.467623 1.701492 -1.250717
v -1.966811 1.298508 -1.749905
v 1.334422 1.809023 -1.334422
v 2.100013 1.190977 -2.100013
v -2.100013 1.190977 2.100013
v -1.334422 1.809023 1.334422
v -1.334422 1.809023 -1.334422
v -2.100013 1.190977 -2.100013
v -1.706629 1.311800 1.950347
v -1.240371 1.688200 1.484088
v 1.240371 1.688200 1.484088
v 1.706629 1.311800 1.950347
v 1.479993 1.524851 -1.242944
v 1.954442 1.141838 -1.717393
v 1.479993 1.524851 1.242944
v 1.954442 1.141838 1.717393
v -1.246441 1.529344 -1.474428
v -1.732020 1.137346 -1.960007
v 1.246441 1.529344 -1.474428
v 1.732020 1.137346 -1.960007
v -1.966811 1.131853 1.749905
v -1.467623 1.534837 1.250717
v -1.467623 1.534837 -1.250717
v -1.966811 1.131853 -1.749905
v -1.706629 1.145144 1.950347
v -1.240371 1.521545 1.484088
v 1.240371 1.521545 1.484088
v 1.706629 1.145144 1.950347
v -0.871505 0.020976 0.871505
v -0.871505 0.020976 -0.871505
v 0.871505 0.020976 0.871505
v 0.871505 0.020976 -0.871505
v -1.244060 0.020976 1.244060
v -1.246441 0.304001 -1.474428
v 1.479993 0.308494 -1.242944
v 1.240371 0.311800 1.484088
v -0.700781 0.566116 0.700781
v -0.700781 0.566116 -0.700781
v 0.700781 0.566116 -0.700781
v 0.700781 0.566116 0.700781
v -0.871505 0.566116 0.871505
v -0.871505 0.566116 -0.871505
v 0.871505 0.566116 -0.871505
v 0.871505 0.566116 0.871505
v -1.240371 0.311800 1.484088
v -1.244060 0.020976 -1.244060
v 1.244060 0.020976 -1.244060
v 1.244060 0.020976 1.244060
v 1.706629 0.688200 1.950347
v -1.706629 0.688200 1.950347
v 1.954442 0.691506 -1.717393
v -1.732020 0.695999 -1.960007
v -1.966811 0.701492 1.749905
v -1.467623 0.298508 1.250717
v 1.479993 0.308494 1.242944
v 1.954442 0.691506 1.717393
v 1.246441 0.304001 -1.474428
v 1.732020 0.695999 -1.960007
v 1.334422 0.190977 1.334422
v 2.100013 0.809023 2.100013
v -1.467623 0.298508 -1.250717
v -1.966811 0.701492 -1.749905
v 1.334422 0.190977 -1.334422
v 2.100013 0.809023 -2.100013
v -2.100013 0.809023 2.100013
v -1.334422 0.190977 1.334422
v -1.334422 0.190977 -1.334422
v -2.100013 0.809023 -2.100013
v -1.706629 0.688200 1.950347
v -1.240371 0.311800 1.484088
v 1.240371 0.311800 1.484088
v 1.706629 0.688200 1.950347
v 1.479993 0.475149 -1.242944
v 1.954442 0.858162 -1.717393
v 1.479993 0.475149 1.242944
v 1.954442 0.858162 1.717393
v -1.246441 0.470656 -1.474428
v -1.732020 0.862654 -1.960007
v 1.246441 0.470656 -1.474428
v 1.732020 0.862654 -1.960007
v -1.966811 0.868147 1.749905
v -1.467623 0.465163 1.250717
v -1.467623 0.465163 -1.250717
v -1.966811 0.868147 -1.749905
v -1.706629 0.854856 1.950347
v -1.240371 0.478455 1.484088
v 1.240371 0.478455 1.484088
v 1.706629 0.854856 1.950347
vn 0.7071 -0.0000 0.7071
vn -0.0000 -0.0000 1.0000
vn -1.0000 -0.0000 -0.0000
vn -0.0000 1.0000 -0.0000
vn -0.9317 0.3633 -0.0000
vn 0.5999 0.8000 -0.0000
vn -0.0000 0.8000 0.5999
vn -0.5999 0.8000 -0.0000
vn -0.0000 0.8000 -0.5999
vn -0.0056 1.0000 -0.0056
vn 0.9317 0.3633 -0.0000
vn -0.0000 0.3633 -0.9317
vn -0.0000 0.3633 0.9317
vn 0.5409 0.8411 -0.0000
vn -0.0000 0.8411 0.5409
vn -0.5125 0.8587 -0.0043
vn -0.0043 0.8587 -0.5125
vn -0.9834 0.1815 -0.0000
vn -0.0000 0.1815 -0.9834
vn 0.9834 0.1815 -0.0000
vn -0.0000 0.1815 0.9834
vn -0.0000 0.4277 0.9039
vn 0.9039 0.4277 -0.0000
vn -0.0000 0.4277 -0.9039
vn -0.9039 0.4277 -0.0000
vn -0.0000 0.7781 0.6281
vn 0.6281 0.7781 -0.0000
vn -0.0000 0.7781 -0.6281
vn -0.6281 0.7781 -0.0000
vn -0.0000 -0.0000 -1.0000
vn 0.7071 -0.0000 -0.7071
vn -0.7071 -0.0000 -0.7071
vn -0.7071 -0.0000 0.7071
vn 1.0000 -0.0000 -0.0000
vn -0.0000 -1.0000 -0.0000
vn -0.8830 -0.4694 -0.0000
vn -0.0000 -0.4694 -0.8830
vn 0.8830 -0.4694 -0.0000
vn -0.0000 -0.4694 0.8830
vn -0.0000 -0.4277 0.9039
vn 0.9039 -0.4277 -0.0000
vn -0.0000 -0.4277 -0.9039
vn -0.9039 -0.4277 -0.0000
vn -0.0000 -0.7781 0.6281
vn 0.6281 -0.7781 -0.0000
vn -0.0000 -0.7781 -0.6281
vn -0.6281 -0.7781 -0.0000
vt 0.569599 0.464436
vt 0.644258 0.364734
vt 0.647352 0.376537
vt 0.616415 0.441543
vt 0.852277 0.354654
vt 0.858898 0.169287
vt 0.873865 0.175068
vt 0.868758 0.347889
vt 0.840196 0.151235
vt 0.651242 0.137213
vt 0.654412 0.124149
vt 0.837928 0.139714
vt 0.852118 0.354729
vt 0.858751 0.169228
vt 0.790744 0.312566
vt 0.684886 0.304833
vt 0.704092 0.285931
vt 0.772838 0.294272
vt 0.799593 0.207826
vt 0.695160 0.198604
vt 0.679828 0.180221
vt 0.814063 0.195675
vt 0.670034 0.317406
vt 0.806059 0.330634
vt 0.713423 0.278656
vt 0.720280 0.226400
vt 0.771796 0.232977
vt 0.765701 0.285156
vt 0.780663 0.226068
vt 0.713147 0.217238
vt 0.645983 0.149012
vt 0.844370 0.162690
vt 0.638893 0.351979
vt 0.839557 0.360791
vt 0.975457 0.474775
vt 0.972666 0.041912
vt 0.995362 0.017867
vt 1.000000 0.497857
vt 0.517312 0.482775
vt 0.493417 0.508692
vt 0.518786 0.024560
vt 0.493417 -0.000000
vt 0.949804 0.107059
vt 0.955284 0.418782
vt 0.905901 0.453529
vt 0.834664 0.373482
vt 0.633904 0.153925
vt 0.535394 0.075395
vt 0.539558 0.418691
vt 0.626061 0.346722
vt 0.924179 0.055803
vt 0.579251 0.047636
vt 0.949587 0.107393
vt 0.954990 0.418435
vt 0.933254 0.375472
vt 0.935711 0.145576
vt 0.875489 0.076081
vt 0.618082 0.058438
vt 0.557552 0.123150
vt 0.622232 0.156754
vt 0.612614 0.343812
vt 0.549082 0.380111
vt 0.832101 0.386442
vt 0.867588 0.445060
vt 0.449227 0.090357
vt 0.426184 0.133952
vt 0.364135 0.161245
vt 0.352883 0.157922
vt 0.337866 0.360792
vt 0.332079 0.377026
vt 0.164431 0.375478
vt 0.158307 0.361241
vt 0.139804 0.342860
vt 0.128597 0.340614
vt 0.118575 0.162188
vt 0.131442 0.159398
vt 0.337928 0.360656
vt 0.158242 0.361080
vt 0.304630 0.310037
vt 0.278753 0.278376
vt 0.271800 0.216459
vt 0.303086 0.190809
vt 0.186871 0.309782
vt 0.165160 0.334457
vt 0.156826 0.168973
vt 0.183365 0.191952
vt 0.325797 0.165232
vt 0.330586 0.333205
vt 0.265937 0.224302
vt 0.270924 0.272483
vt 0.222842 0.277175
vt 0.217524 0.229308
vt 0.209651 0.223447
vt 0.217080 0.284901
vt 0.143137 0.154489
vt 0.151524 0.347183
vt 0.340089 0.151990
vt 0.343957 0.347734
vt 0.446559 0.461195
vt 0.467586 0.483254
vt 0.000000 0.513076
vt 0.025167 0.489093
vt 0.468451 0.039132
vt 0.493417 0.017038
vt 0.023889 0.025753
vt 0.000000 -0.000000
vt 0.094883 0.462438
vt 0.395173 0.445338
vt 0.428670 0.403421
vt 0.356211 0.342852
vt 0.148622 0.142180
vt 0.075273 0.043841
vt 0.405368 0.058686
vt 0.335264 0.139517
vt 0.041405 0.431142
vt 0.045258 0.087320
vt 0.095231 0.462193
vt 0.134496 0.446820
vt 0.356234 0.426583
vt 0.394860 0.445088
vt 0.063509 0.379370
vt 0.054696 0.125067
vt 0.120975 0.066783
vt 0.368793 0.066643
vt 0.332779 0.126499
vt 0.151711 0.130911
vt 0.421822 0.371233
vt 0.368630 0.340390
s 0
usemtl マテリアル
f 27/1/1 11/2/1 49/3/1 50/4/1
f 47/5/2 46/6/2 62/7/2 63/8/2
f 30/9/3 37/10/3 59/11/3 58/12/3
f 12/13/4 21/14/4 46/6/4 47/5/4
f 3/15/5 4/16/5 19/17/5 20/18/5
f 1/19/6 2/20/6 22/21/6 9/22/6
f 2/20/7 4/16/7 23/23/7 22/21/7
f 4/16/8 3/15/8 24/24/8 23/23/8
f 3/15/9 1/19/9 9/22/9 24/24/9
f 15/25/10 14/26/10 13/27/10 16/28/10
f 2/20/11 1/19/11 17/29/11 18/30/11
f 1/19/12 3/15/12 20/18/12 17/29/12
f 4/16/13 2/20/13 18/30/13 19/17/13
f 13/27/14 14/26/14 18/30/14 17/29/14
f 14/26/15 15/25/15 19/17/15 18/30/15
f 15/25/16 16/28/16 20/18/16 19/17/16
f 16/28/17 13/27/17 17/29/17 20/18/17
f 43/31/18 42/32/18 9/22/18 22/21/18
f 39/33/19 43/31/19 22/21/19 23/23/19
f 35/34/20 39/33/20 23/23/20 24/24/20
f 42/32/21 35/34/21 24/24/21 9/22/21
f 36/35/22 41/36/22 5/37/22 8/38/22
f 40/39/23 36/35/23 8/38/23 7/40/23
f 44/41/24 40/39/24 7/40/24 6/42/24
f 41/36/25 44/41/25 6/42/25 5/37/25
f 26/43/26 21/14/26 42/32/26 41/36/26
f 12/13/26 25/44/26 36/35/26 35/34/26
f 25/44/26 26/43/26 41/36/26 36/35/26
f 21/14/26 12/13/26 35/34/26 42/32/26
f 11/2/27 27/1/27 40/39/27 39/33/27
f 32/45/27 31/46/27 35/34/27 36/35/27
f 27/1/27 32/45/27 36/35/27 40/39/27
f 31/46/27 11/2/27 39/33/27 35/34/27
f 10/47/28 28/48/28 44/41/28 43/31/28
f 34/49/28 33/50/28 39/33/28 40/39/28
f 28/48/28 34/49/28 40/39/28 44/41/28
f 33/50/28 10/47/28 43/31/28 39/33/28
f 30/9/29 29/51/29 41/36/29 42/32/29
f 38/52/29 37/10/29 43/31/29 44/41/29
f 29/51/29 38/52/29 44/41/29 41/36/29
f 37/10/29 30/9/29 42/32/29 43/31/29
f 45/53/30 48/54/30 64/55/30 61/56/30
f 25/44/4 12/13/4 47/5/4 48/54/4
f 26/43/4 25/44/4 48/54/4 45/53/4
f 21/14/4 26/43/4 45/53/4 46/6/4
f 57/57/29 58/12/29 59/11/29 60/58/29
f 54/59/28 53/60/28 55/61/28 56/62/28
f 50/4/27 49/3/27 51/63/27 52/64/27
f 64/55/26 63/8/26 62/7/26 61/56/26
f 28/48/31 10/47/31 53/60/31 54/59/31
f 31/46/31 32/45/31 52/64/31 51/63/31
f 29/51/32 30/9/32 58/12/32 57/57/32
f 33/50/32 34/49/32 56/62/32 55/61/32
f 46/6/1 45/53/1 61/56/1 62/7/1
f 32/45/3 27/1/3 50/4/3 52/64/3
f 37/10/33 38/52/33 60/58/33 59/11/33
f 34/49/2 28/48/2 54/59/2 56/62/2
f 48/54/33 47/5/33 63/8/33 64/55/33
f 11/2/34 31/46/34 51/63/34 49/3/34
f 38/52/34 29/51/34 57/57/34 60/58/34
f 10/47/30 33/50/30 55/61/30 53/60/30
f 87/65/1 110/66/1 109/67/1 71/68/1
f 107/69/2 123/70/2 122/71/2 106/72/2
f 90/73/3 118/74/3 119/75/3 97/76/3
f 72/77/4 107/69/4 106/72/4 81/78/4
f 67/79/3 80/80/3 79/81/3 68/82/3
f 65/83/35 69/84/35 82/85/35 66/86/35
f 66/86/35 82/85/35 83/87/35 68/82/35
f 68/82/35 83/87/35 84/88/35 67/79/35
f 67/79/35 84/88/35 69/84/35 65/83/35
f 75/89/35 76/90/35 73/91/35 74/92/35
f 66/86/34 78/93/34 77/94/34 65/83/34
f 65/83/30 77/94/30 80/80/30 67/79/30
f 68/82/2 79/81/2 78/93/2 66/86/2
f 73/91/35 77/94/35 78/93/35 74/92/35
f 74/92/35 78/93/35 79/81/35 75/89/35
f 75/89/35 79/81/35 80/80/35 76/90/35
f 76/90/35 80/80/35 77/94/35 73/91/35
f 103/95/36 82/85/36 69/84/36 102/96/36
f 99/97/37 83/87/37 82/85/37 103/95/37
f 95/98/38 84/88/38 83/87/38 99/97/38
f 102/96/39 69/84/39 84/88/39 95/98/39
f 96/99/40 8/100/40 5/101/40 101/102/40
f 100/103/41 7/104/41 8/100/41 96/99/41
f 104/105/42 6/106/42 7/104/42 100/103/42
f 101/102/43 5/101/43 6/106/43 104/105/43
f 86/107/44 101/102/44 102/96/44 81/78/44
f 72/77/44 95/98/44 96/99/44 85/108/44
f 85/108/44 96/99/44 101/102/44 86/107/44
f 81/78/44 102/96/44 95/98/44 72/77/44
f 71/68/45 99/97/45 100/103/45 87/65/45
f 92/109/45 96/99/45 95/98/45 91/110/45
f 87/65/45 100/103/45 96/99/45 92/109/45
f 91/110/45 95/98/45 99/97/45 71/68/45
f 70/111/46 103/95/46 104/105/46 88/112/46
f 94/113/46 100/103/46 99/97/46 93/114/46
f 88/112/46 104/105/46 100/103/46 94/113/46
f 93/114/46 99/97/46 103/95/46 70/111/46
f 90/73/47 102/96/47 101/102/47 89/115/47
f 98/116/47 104/105/47 103/95/47 97/76/47
f 89/115/47 101/102/47 104/105/47 98/116/47
f 97/76/47 103/95/47 102/96/47 90/73/47
f 105/117/30 121/118/30 124/119/30 108/120/30
f 85/108/4 108/120/4 107/69/4 72/77/4
f 86/107/4 105/117/4 108/120/4 85/108/4
f 81/78/4 106/72/4 105/117/4 86/107/4
f 117/121/47 120/122/47 119/75/47 118/74/47
f 114/123/46 116/124/46 115/125/46 113/126/46
f 110/66/45 112/127/45 111/128/45 109/67/45
f 124/119/44 121/118/44 122/71/44 123/70/44
f 88/112/31 114/123/31 113/126/31 70/111/31
f 91/110/31 111/128/31 112/127/31 92/109/31
f 89/115/32 117/121/32 118/74/32 90/73/32
f 93/114/32 115/125/32 116/124/32 94/113/32
f 106/72/1 122/71/1 121/118/1 105/117/1
f 92/109/3 112/127/3 110/66/3 87/65/3
f 97/76/33 119/75/33 120/122/33 98/116/33
f 94/113/2 116/124/2 114/123/2 88/112/2
f 108/120/33 124/119/33 123/70/33 107/69/33
f 71/68/34 109/67/34 111/128/34 91/110/34
f 98/116/34 120/122/34 117/121/34 89/115/34
f 70/111/30 113/126/30 115/125/30 93/114/30
