# Blender 4.0.2
# www.blender.org
mtllib Tutorial.mtl
o 円柱.001
v 0.000000 1.358276 1.056460
v 0.000000 1.650038 0.566900
v 0.173932 1.262695 1.056460
v 0.397451 1.355296 0.566900
v 0.150833 1.076151 1.056460
v 0.417797 1.146458 0.566900
v 0.139104 0.961478 1.056460
v 0.324090 0.853542 0.566900
v 0.131930 0.906871 1.056460
v 0.266722 0.726005 0.486200
v 0.000000 0.479426 0.566900
v 0.000000 0.826168 1.056460
v 0.000000 1.557009 -0.817262
v 0.000000 1.539475 -1.432897
v 0.173160 1.254030 -0.817262
v 0.031324 1.517801 -1.420260
v 0.177205 1.146453 -0.817262
v 0.089047 1.064303 -1.336411
v 0.177205 1.057280 -0.817262
v 0.081687 0.935697 -1.356727
v 0.155820 0.914940 -0.817262
v 0.024873 0.534176 -1.466015
v 0.000000 0.384785 -1.546034
v 0.000000 0.410044 -0.808257
v 0.000000 1.481179 -1.050292
v 0.073109 1.402124 -1.037432
v 0.078039 1.046397 -1.050292
v 0.078039 0.894620 -1.050292
v 0.060771 0.851233 -1.050292
v 0.000000 0.760200 -1.050292
v 0.055758 1.675599 -1.348864
v 0.224721 1.084842 -1.254982
v 0.224721 0.915158 -1.254982
v 0.028214 0.650435 -1.254982
v 0.000000 0.582330 -1.254982
v 0.000000 1.861398 -1.464899
v 0.000000 0.987786 -1.447786
v 0.000000 1.146431 -1.450875
v 0.000000 1.977459 -0.184910
v 0.364976 1.524434 -0.037006
v 0.449401 1.146458 -0.037006
v 0.449401 0.853542 -0.037006
v 0.585845 0.281017 0.090719
v 0.000000 0.544445 -0.037006
v 0.000000 1.977459 0.329282
v 0.412098 1.439865 0.264947
v 0.414136 1.143620 0.264947
v 0.421350 0.856380 0.264947
v 0.639377 0.277378 0.246305
v 0.000000 0.511935 0.264947
v 0.317854 1.450758 -0.338959
v 0.402279 1.146458 -0.338959
v 0.402279 0.853542 -0.338959
v 0.386616 0.703472 -0.338959
v 0.000000 0.576954 -0.338959
v 0.000000 1.729197 -0.496789
v 0.229610 1.553006 0.566900
v 0.086966 1.319178 1.056460
v 0.133361 0.641308 0.566900
v 0.104203 0.886248 1.056460
v 0.152176 1.508306 -0.848964
v 0.069412 0.813583 -0.817262
v 0.030386 0.805717 -1.050292
v 0.173326 0.607704 -0.037006
v 0.182488 1.637576 -0.037006
v 0.153343 0.575195 0.264947
v 0.206049 1.595291 0.264947
v 0.158927 1.679860 -0.338959
v 0.193308 0.640213 -0.338959
v 0.311530 0.625400 0.335191
v 0.385649 0.654451 0.043235
v -0.173932 1.262695 1.056460
v -0.397451 1.355296 0.566900
v -0.150833 1.076151 1.056460
v -0.417797 1.146458 0.566900
v -0.139104 0.961478 1.056460
v -0.324090 0.853542 0.566900
v -0.131930 0.906871 1.056460
v -0.266722 0.726005 0.486200
v -0.173160 1.254030 -0.817262
v -0.031324 1.517801 -1.420260
v -0.177205 1.146453 -0.817262
v -0.089047 1.064303 -1.336411
v -0.177205 1.057280 -0.817262
v -0.081687 0.935697 -1.356727
v -0.155820 0.914940 -0.817262
v -0.024873 0.534176 -1.466015
v -0.073109 1.402124 -1.037432
v -0.078039 1.046397 -1.050292
v -0.078039 0.894620 -1.050292
v -0.060771 0.851233 -1.050292
v -0.055758 1.675599 -1.348864
v -0.224721 1.084842 -1.254982
v -0.224721 0.915158 -1.254982
v -0.028214 0.650435 -1.254982
v -0.364976 1.524434 -0.037006
v -0.449401 1.146458 -0.037006
v -0.449401 0.853542 -0.037006
v -0.585845 0.281017 0.090719
v -0.412098 1.439865 0.264947
v -0.414136 1.143620 0.264947
v -0.421350 0.856380 0.264947
v -0.639377 0.277378 0.246305
v -0.317854 1.450758 -0.338959
v -0.402279 1.146458 -0.338959
v -0.402279 0.853542 -0.338959
v -0.386616 0.703472 -0.338959
v -0.229610 1.553006 0.566900
v -0.086966 1.319178 1.056460
v -0.133361 0.641308 0.566900
v -0.104203 0.886248 1.056460
v -0.152176 1.508306 -0.848964
v -0.069412 0.813583 -0.817262
v -0.030386 0.805717 -1.050292
v -0.173326 0.607704 -0.037006
v -0.182488 1.637576 -0.037006
v -0.153343 0.575195 0.264947
v -0.206049 1.595291 0.264947
v -0.158927 1.679860 -0.338959
v -0.193308 0.640213 -0.338959
v -0.311530 0.625400 0.335191
v -0.385649 0.654451 0.043235
vn 0.5018 -0.3725 -0.7807
vn 0.8564 0.4565 -0.2412
vn 0.8605 0.4553 -0.2286
vn 0.8491 0.4576 -0.2641
vn 0.9945 0.0124 0.1043
vn 0.8034 0.1377 -0.5793
vn 0.6163 -0.7849 0.0641
vn 0.8743 -0.1313 -0.4673
vn 0.9777 -0.1457 0.1515
vn 0.9776 -0.1458 0.1515
vn 0.6312 -0.6810 0.3713
vn 0.6312 -0.6810 0.3712
vn 0.2796 -0.9543 -0.1052
vn 0.7359 -0.5382 0.4109
vn 0.5487 0.0433 -0.8349
vn 0.8231 0.3374 -0.4567
vn 0.8128 -0.0000 0.5825
vn 0.8340 -0.4301 0.3456
vn 0.6798 0.7197 0.1411
vn 0.8129 -0.4512 0.3682
vn 0.5654 0.8180 0.1056
vn 0.9426 -0.1416 -0.3023
vn 0.7100 0.5950 0.3767
vn 0.3249 -0.9414 -0.0906
vn 0.9389 -0.2946 0.1779
vn 0.7866 -0.3131 0.5323
vn 0.8130 -0.0112 -0.5821
vn 0.8130 -0.0157 -0.5820
vn 0.8130 -0.0121 -0.5821
vn 0.9552 0.2364 -0.1779
vn 0.9483 -0.2154 -0.2331
vn -1.0000 -0.0000 -0.0000
vn 0.9048 -0.0000 -0.4258
vn 0.6987 -0.5658 -0.4378
vn 0.7015 -0.5662 -0.4329
vn 0.6999 -0.5658 -0.4358
vn 0.9158 0.1982 0.3493
vn 0.9158 0.1981 0.3493
vn 0.8106 -0.5267 0.2561
vn 0.9919 0.1272 -0.0011
vn 0.6317 0.6332 0.4473
vn 0.6198 -0.6634 0.4193
vn 0.8807 -0.2278 0.4153
vn 0.3597 -0.9289 -0.0881
vn 0.3461 0.8047 0.4824
vn 0.9987 0.0443 0.0241
vn 0.9828 -0.1026 -0.1534
vn -0.8762 -0.4778 -0.0635
vn 0.4193 0.8022 -0.4251
vn 0.4194 0.8022 -0.4250
vn 0.4194 0.8022 -0.4251
vn 0.7104 -0.6958 -0.1064
vn 0.7089 -0.6965 -0.1110
vn 0.7094 -0.6963 -0.1094
vn -0.6669 -0.6961 0.2659
vn 0.6526 0.5928 -0.4719
vn 0.8291 0.0678 -0.5550
vn -0.6819 -0.6981 0.2183
vn 0.9558 0.2892 -0.0527
vn 0.7030 0.7012 -0.1187
vn 0.8646 -0.4888 -0.1164
vn 0.8646 -0.4888 -0.1163
vn 0.8369 -0.1698 -0.5203
vn 0.8359 -0.1709 -0.5216
vn 0.8591 -0.1382 -0.4929
vn 0.9341 0.1918 -0.3011
vn 0.9405 0.1818 -0.2871
vn 0.9373 0.1870 -0.2940
vn 0.9201 -0.0000 -0.3916
vn 0.8807 0.4737 -0.0008
vn 0.2039 -0.9534 0.2222
vn 0.8945 -0.0062 0.4471
vn 0.2740 -0.9601 -0.0561
vn 0.9847 -0.1589 0.0720
vn 0.8307 0.0034 -0.5567
vn 0.5225 -0.0903 -0.8478
vn 0.4082 0.8423 -0.3520
vn -0.0000 -0.0000 1.0000
vn 0.9142 0.0344 -0.4038
vn 0.6655 0.5626 0.4906
vn 0.7185 0.2496 0.6492
vn 0.9465 0.1635 -0.2781
vn 0.8815 0.4721 -0.0027
vn -0.8368 -0.4817 -0.2604
vn 0.8257 -0.5512 -0.1197
vn 0.2862 -0.8747 -0.3912
vn 0.6591 -0.5208 0.5425
vn 0.9880 -0.0000 -0.1542
vn -0.5018 -0.3725 -0.7807
vn -0.9420 0.1752 -0.2862
vn -0.9420 0.1752 -0.2863
vn -0.9945 0.0124 0.1043
vn -0.8034 0.1377 -0.5793
vn -0.6163 -0.7849 0.0641
vn -0.8743 -0.1313 -0.4673
vn -0.9777 -0.1457 0.1515
vn -0.9776 -0.1458 0.1515
vn -0.6312 -0.6810 0.3712
vn -0.6312 -0.6810 0.3713
vn -0.2796 -0.9543 -0.1052
vn -0.7359 -0.5382 0.4109
vn -0.5487 0.0433 -0.8349
vn -0.8231 0.3374 -0.4567
vn -0.8128 -0.0000 0.5825
vn -0.8340 -0.4301 0.3456
vn -0.6798 0.7197 0.1412
vn -0.8129 -0.4512 0.3683
vn -0.8129 -0.4512 0.3682
vn -0.5654 0.8180 0.1056
vn -0.9426 -0.1416 -0.3023
vn -0.7100 0.5949 0.3768
vn -0.7101 0.5949 0.3767
vn -0.3248 -0.9414 -0.0906
vn -0.9389 -0.2946 0.1779
vn -0.7866 -0.3131 0.5323
vn -0.2714 0.0558 -0.9608
vn -0.2710 0.0480 -0.9614
vn -0.2712 0.0523 -0.9611
vn -0.9552 0.2364 -0.1779
vn -0.9483 -0.2154 -0.2331
vn -0.9048 -0.0000 -0.4258
vn -0.8205 -0.1022 -0.5625
vn -0.9158 0.1982 0.3492
vn -0.8106 -0.5267 0.2561
vn -0.9919 0.1272 -0.0011
vn -0.6317 0.6332 0.4473
vn -0.6198 -0.6633 0.4193
vn -0.8807 -0.2278 0.4153
vn -0.3597 -0.9289 -0.0881
vn -0.3460 0.8047 0.4824
vn -0.9987 0.0443 0.0242
vn -0.9828 -0.1026 -0.1534
vn 0.8762 -0.4778 -0.0635
vn -0.4194 0.8022 -0.4250
vn -0.4193 0.8022 -0.4251
vn -0.9291 -0.2039 -0.3085
vn -0.9237 -0.2072 -0.3222
vn -0.9258 -0.2057 -0.3171
vn 0.6669 -0.6961 0.2659
vn -0.6526 0.5928 -0.4719
vn -0.8291 0.0678 -0.5550
vn 0.6819 -0.6981 0.2183
vn -0.9558 0.2892 -0.0527
vn -0.7030 0.7012 -0.1187
vn -0.8646 -0.4888 -0.1164
vn -0.8646 -0.4888 -0.1163
vn -0.6630 0.2536 -0.7043
vn -0.9405 0.1818 -0.2871
vn -0.9341 0.1918 -0.3011
vn -0.9373 0.1870 -0.2940
vn -0.9201 -0.0000 -0.3916
vn -0.8806 0.4738 -0.0010
vn -0.2039 -0.9534 0.2222
vn -0.8945 -0.0062 0.4470
vn -0.2740 -0.9601 -0.0561
vn -0.9847 -0.1589 0.0720
vn -0.8307 0.0034 -0.5567
vn -0.5225 -0.0903 -0.8478
vn -0.4081 0.8423 -0.3520
vn -0.9142 0.0344 -0.4038
vn -0.6655 0.5626 0.4906
vn -0.7185 0.2496 0.6492
vn -0.9465 0.1635 -0.2781
vn -0.8815 0.4721 -0.0027
vn 0.8368 -0.4817 -0.2604
vn -0.8257 -0.5512 -0.1197
vn -0.2862 -0.8747 -0.3912
vn -0.6591 -0.5208 0.5425
vn -0.9880 -0.0000 -0.1542
vn 0.9420 0.1752 -0.2862
vn 0.9420 0.1752 -0.2863
vn 0.9776 -0.1458 0.1516
vn 0.9635 -0.1902 -0.1886
vn 0.9547 -0.2030 -0.2178
vn 0.9698 -0.1775 -0.1671
vn 0.6798 0.7197 0.1412
vn 0.8129 -0.4512 0.3683
vn 0.7100 0.5949 0.3768
vn 0.7101 0.5949 0.3767
vn 0.3248 -0.9414 -0.0906
vn 0.2714 0.0558 -0.9608
vn 0.2712 0.0523 -0.9611
vn 0.2710 0.0480 -0.9614
vn 0.8205 -0.1022 -0.5625
vn 0.9158 0.1982 0.3492
vn 0.6198 -0.6633 0.4193
vn 0.3460 0.8047 0.4824
vn 0.9987 0.0443 0.0242
vn 0.9291 -0.2039 -0.3085
vn 0.9258 -0.2057 -0.3171
vn 0.9237 -0.2072 -0.3222
vn 0.8646 -0.4889 -0.1164
vn 0.6630 0.2536 -0.7043
vn 0.8810 -0.0796 -0.4664
vn 0.8818 -0.0811 -0.4645
vn 0.8830 -0.0829 -0.4621
vn 0.8806 0.4738 -0.0010
vn 0.8945 -0.0062 0.4470
vn 0.4081 0.8423 -0.3520
vn -0.8564 0.4565 -0.2412
vn -0.8491 0.4576 -0.2641
vn -0.8605 0.4553 -0.2286
vn -0.9776 -0.1458 0.1516
vn -0.9698 -0.1775 -0.1671
vn -0.9547 -0.2030 -0.2178
vn -0.9635 -0.1902 -0.1886
vn -0.6798 0.7197 0.1411
vn -0.7100 0.5950 0.3767
vn -0.3249 -0.9414 -0.0906
vn -0.8130 -0.0112 -0.5821
vn -0.8130 -0.0121 -0.5821
vn -0.8130 -0.0157 -0.5820
vn -0.6987 -0.5658 -0.4378
vn -0.6999 -0.5658 -0.4358
vn -0.7015 -0.5662 -0.4329
vn -0.9158 0.1982 0.3493
vn -0.9158 0.1981 0.3493
vn -0.6198 -0.6634 0.4193
vn -0.3461 0.8047 0.4824
vn -0.9987 0.0443 0.0241
vn -0.4194 0.8022 -0.4251
vn -0.7104 -0.6958 -0.1064
vn -0.7094 -0.6963 -0.1094
vn -0.7089 -0.6965 -0.1110
vn -0.8646 -0.4889 -0.1164
vn -0.8369 -0.1698 -0.5203
vn -0.8591 -0.1382 -0.4929
vn -0.8359 -0.1709 -0.5216
vn -0.8830 -0.0829 -0.4621
vn -0.8818 -0.0811 -0.4645
vn -0.8810 -0.0796 -0.4664
vn -0.8807 0.4737 -0.0008
vn -0.8945 -0.0062 0.4471
vn -0.4082 0.8423 -0.3520
vt 0.827867 0.256227
vt 0.854351 0.312739
vt 0.825480 0.313889
vt 0.618536 0.448415
vt 0.517536 0.452085
vt 0.609418 0.401353
vt 0.378131 0.359227
vt 0.447138 0.402657
vt 0.389725 0.414292
vt 0.825694 0.342736
vt 0.864831 0.428382
vt 0.849243 0.460609
vt 0.359342 0.166078
vt 0.399625 0.220150
vt 0.341925 0.199820
vt 0.495225 0.336705
vt 0.600625 0.330207
vt 0.599728 0.361311
vt 0.332025 0.427757
vt 0.317368 0.369783
vt 0.137171 0.251142
vt 0.064233 0.326689
vt 0.060545 0.322478
vt 0.491434 0.307765
vt 0.452677 0.248875
vt 0.504622 0.276934
vt 0.783664 0.293779
vt 0.783268 0.282977
vt 0.852538 0.338378
vt 0.601583 0.378378
vt 0.504613 0.392428
vt 0.780351 0.334617
vt 0.783590 0.272604
vt 0.350063 0.515958
vt 0.402383 0.469768
vt 0.411116 0.514307
vt 0.158216 0.306590
vt 0.166865 0.272387
vt 0.461435 0.473771
vt 0.471315 0.508746
vt 0.645370 0.325928
vt 0.252052 0.614112
vt 0.307237 0.574294
vt 0.318476 0.655548
vt 0.517848 0.246134
vt 0.865217 0.240377
vt 0.828961 0.242252
vt 0.873773 0.214134
vt 0.783477 0.303195
vt 0.867668 0.354231
vt 0.684340 0.132764
vt 0.637400 0.140650
vt 0.642341 0.061902
vt 0.295192 0.950580
vt 0.389930 0.791148
vt 0.389930 0.894120
vt 0.599413 0.310582
vt 0.782234 0.406753
vt 0.165410 0.064755
vt 0.214828 0.149929
vt 0.121708 0.096914
vt 0.139242 0.464823
vt 0.069957 0.387322
vt 0.159983 0.419460
vt 0.044711 0.308941
vt 0.121933 0.214134
vt 0.065211 0.356879
vt 0.064466 0.336387
vt 0.464765 0.220763
vt 0.045261 0.409486
vt 0.058443 0.399703
vt 0.341228 0.468200
vt 0.300468 0.153495
vt 0.358988 0.075364
vt 0.378103 0.113986
vt 0.265760 0.071397
vt 0.280658 0.016905
vt 0.663649 0.443172
vt 0.654383 0.425025
vt 0.645292 0.316848
vt 0.206740 0.043931
vt 0.253838 0.074050
vt 0.413831 0.627112
vt 0.424385 0.558186
vt 0.464049 0.568557
vt 0.867383 0.323143
vt 0.531094 0.502587
vt 0.549029 0.086062
vt 0.539490 0.118166
vt 0.647698 0.355240
vt 0.365811 0.566240
vt 0.376466 0.241098
vt 0.166865 0.372635
vt 0.424223 0.275249
vt 0.870436 0.433088
vt 0.570897 0.515958
vt 0.626911 0.473233
vt 0.782230 0.427749
vt 0.873773 0.499864
vt 0.645404 0.306636
vt 0.341640 0.231325
vt 0.436568 0.347035
vt 0.248131 0.572781
vt 0.411441 0.194460
vt 0.112994 0.497281
vt 0.682910 0.142741
vt 0.295192 0.724048
s 0
usemtl マテリアル.001
f 34/1/1 20/2/1 33/3/1
f 61/4/2 51/5/3 15/6/4
f 48/7/5 41/8/5 47/9/5
f 32/10/6 16/11/6 31/12/6
f 11/13/7 66/14/7 59/15/7
f 53/16/8 21/17/8 19/18/8
f 48/7/9 6/19/9 8/20/10
f 59/21/11 9/22/11 60/23/12
f 54/24/13 64/25/13 69/26/13
f 34/1/14 29/27/14 63/28/14
f 33/3/15 18/29/15 32/10/15
f 17/30/16 51/5/16 52/31/16
f 27/32/17 33/3/17 32/10/17
f 30/33/18 34/1/18 63/28/18
f 57/34/19 46/35/19 67/36/19
f 8/37/20 9/22/20 10/38/20
f 67/36/21 40/39/21 65/40/21
f 21/17/22 28/41/22 19/18/22
f 2/42/23 67/43/23 45/44/23
f 64/25/24 55/45/24 69/26/24
f 22/46/25 35/47/25 23/48/25
f 29/27/26 33/3/26 28/49/26
f 38/50/27 16/11/28 18/29/29
f 41/8/30 51/5/30 40/39/30
f 30/51/31 62/52/31 24/53/31
f 2/54/32 12/55/32 1/56/32
f 52/31/33 19/18/33 17/30/33
f 53/16/34 62/57/35 21/17/36
f 26/58/37 32/10/38 31/12/38
f 10/59/39 48/60/39 8/61/39
f 46/35/40 41/8/40 40/39/40
f 57/62/41 3/63/41 4/64/41
f 59/21/42 12/65/42 11/66/42
f 8/37/43 5/67/43 7/68/43
f 66/14/44 44/69/44 64/25/44
f 57/62/45 1/70/45 58/71/45
f 4/72/46 47/9/46 46/35/46
f 42/73/47 54/74/47 53/75/47
f 43/76/48 71/77/48 54/74/48
f 25/78/49 61/4/50 26/79/51
f 29/80/52 21/17/53 62/57/54
f 10/59/55 70/81/55 49/82/55
f 39/83/56 68/84/56 56/85/56
f 22/46/57 37/86/57 20/2/57
f 70/81/58 43/76/58 49/82/58
f 48/60/59 43/76/59 42/73/59
f 65/40/60 51/5/60 68/87/60
f 55/88/61 62/52/61 69/89/62
f 18/29/63 37/86/64 38/50/65
f 15/6/66 26/79/67 61/4/68
f 19/18/69 27/90/69 17/30/69
f 45/44/70 65/91/70 39/83/70
f 70/92/71 59/15/71 66/14/71
f 3/63/72 6/93/72 4/64/72
f 71/94/73 66/14/73 64/25/73
f 34/1/74 22/46/74 20/2/74
f 14/95/75 31/12/75 16/11/75
f 32/10/76 18/29/76 16/11/76
f 56/96/77 61/4/77 13/97/77
f 1/70/78 12/65/78 5/67/78
f 15/6/79 17/30/79 27/90/79
f 25/98/80 31/12/80 36/99/80
f 10/59/81 49/82/81 48/60/81
f 42/73/82 43/76/82 54/74/82
f 39/83/83 65/91/83 68/84/83
f 70/81/84 71/77/84 43/76/84
f 62/57/85 63/100/85 29/80/85
f 54/24/86 69/26/86 62/57/86
f 70/92/87 10/101/87 59/15/87
f 53/16/88 41/8/88 42/102/88
f 95/1/89 94/3/89 85/2/89
f 112/4/90 104/5/90 119/87/91
f 97/8/92 102/7/92 101/9/92
f 93/10/93 92/12/93 81/11/93
f 117/14/94 11/13/94 110/15/94
f 106/16/95 84/18/95 86/17/95
f 75/19/96 102/7/96 77/20/97
f 110/21/98 78/22/99 79/38/98
f 107/24/100 115/25/100 122/94/100
f 95/1/101 91/27/101 94/3/101
f 94/3/102 83/29/102 85/2/102
f 104/5/103 82/30/103 105/31/103
f 89/32/104 94/3/104 90/49/104
f 30/33/105 95/1/105 35/47/105
f 108/34/106 100/35/106 73/72/106
f 77/37/107 78/22/108 76/68/108
f 118/36/109 96/39/109 100/35/109
f 86/17/110 84/18/110 90/41/110
f 2/42/111 118/43/112 108/103/111
f 115/25/113 55/45/113 44/69/113
f 87/46/114 35/47/114 95/1/114
f 91/27/115 90/49/115 94/3/115
f 38/50/116 81/11/117 14/95/118
f 97/8/119 104/5/119 105/31/119
f 113/52/120 30/51/120 24/53/120
f 105/31/121 84/18/121 106/16/121
f 106/16/122 113/57/122 107/24/122
f 88/58/123 93/10/123 89/32/123
f 79/59/124 77/61/124 102/60/124
f 100/35/125 97/8/125 101/9/125
f 72/63/126 108/62/126 73/64/126
f 110/21/127 12/65/127 111/23/127
f 77/37/128 74/67/128 75/93/128
f 117/14/129 44/69/129 50/104/129
f 108/62/130 1/70/130 2/105/130
f 73/72/131 101/9/131 75/19/131
f 98/73/132 106/75/132 107/74/132
f 99/76/133 107/74/133 122/77/133
f 25/78/134 112/4/135 13/97/135
f 91/80/136 86/17/137 90/41/138
f 79/59/139 103/82/139 121/81/139
f 39/83/140 56/85/140 119/84/140
f 87/46/141 37/86/141 23/48/141
f 121/81/142 103/82/142 99/76/142
f 102/60/143 99/76/143 103/82/143
f 116/40/144 104/5/144 96/39/144
f 113/52/145 55/88/145 120/89/146
f 83/29/147 37/86/147 85/2/147
f 88/79/148 80/6/149 112/4/150
f 84/18/151 89/90/151 90/41/151
f 45/44/152 116/91/152 118/43/152
f 121/92/153 117/14/153 110/15/153
f 72/63/154 75/93/154 74/67/154
f 122/94/155 117/14/155 121/92/155
f 95/1/156 85/2/156 87/46/156
f 14/95/157 92/12/157 36/99/157
f 93/10/158 81/11/158 83/29/158
f 56/96/159 112/4/159 119/87/159
f 74/67/78 76/68/78 12/65/78
f 80/6/160 89/90/160 82/30/160
f 25/98/161 92/12/161 88/58/161
f 79/59/162 102/60/162 103/82/162
f 98/73/163 107/74/163 99/76/163
f 39/83/164 119/84/164 116/91/164
f 121/81/165 99/76/165 122/77/165
f 113/57/166 91/80/166 114/100/166
f 107/24/167 113/57/167 120/26/167
f 121/92/168 110/15/168 79/101/168
f 97/8/169 106/16/169 98/102/169
f 61/4/170 68/87/171 51/5/170
f 48/7/5 42/102/5 41/8/5
f 11/13/7 50/104/7 66/14/7
f 48/7/10 47/9/10 6/19/172
f 59/21/12 10/38/12 9/22/11
f 54/24/13 71/94/13 64/25/13
f 34/1/14 33/3/14 29/27/14
f 33/3/15 20/2/15 18/29/15
f 17/30/173 15/6/174 51/5/175
f 27/32/17 28/49/17 33/3/17
f 30/33/18 35/47/18 34/1/18
f 57/34/176 4/72/176 46/35/176
f 8/37/177 7/68/20 9/22/20
f 67/36/21 46/35/21 40/39/21
f 2/42/178 57/103/178 67/43/179
f 64/25/180 44/69/180 55/45/180
f 22/46/25 34/1/25 35/47/25
f 38/50/181 14/95/182 16/11/183
f 41/8/30 52/31/30 51/5/30
f 30/51/31 63/106/31 62/52/31
f 2/54/32 11/107/32 12/55/32
f 52/31/33 53/16/33 19/18/33
f 53/16/184 54/24/184 62/57/184
f 26/58/185 27/32/185 32/10/185
f 46/35/40 47/9/40 41/8/40
f 57/62/41 58/71/41 3/63/41
f 59/21/186 60/23/186 12/65/186
f 8/37/43 6/93/43 5/67/43
f 66/14/44 50/104/44 44/69/44
f 57/62/187 2/105/187 1/70/187
f 4/72/188 6/19/188 47/9/188
f 25/78/50 13/97/49 61/4/49
f 29/80/189 28/41/190 21/17/191
f 22/46/57 23/48/57 37/86/57
f 48/60/59 49/82/59 43/76/59
f 65/40/60 40/39/60 51/5/60
f 55/88/192 24/53/192 62/52/192
f 18/29/193 20/2/193 37/86/193
f 15/6/194 27/90/195 26/79/196
f 19/18/69 28/41/69 27/90/69
f 45/44/197 67/43/197 65/91/197
f 3/63/198 5/67/198 6/93/198
f 71/94/73 70/92/73 66/14/73
f 14/95/75 36/99/75 31/12/75
f 56/96/199 68/87/199 61/4/199
f 12/65/78 60/23/78 7/68/78
f 60/23/78 9/22/78 7/68/78
f 7/68/78 5/67/78 12/65/78
f 5/67/78 3/63/78 58/71/78
f 58/71/78 1/70/78 5/67/78
f 25/98/80 26/58/80 31/12/80
f 53/16/88 52/31/88 41/8/88
f 112/4/200 80/6/201 104/5/202
f 97/8/92 98/102/92 102/7/92
f 117/14/94 50/104/94 11/13/94
f 75/19/203 101/9/97 102/7/97
f 110/21/99 111/23/98 78/22/99
f 107/24/100 120/26/100 115/25/100
f 95/1/101 114/28/101 91/27/101
f 94/3/102 93/10/102 83/29/102
f 104/5/204 80/6/205 82/30/206
f 89/32/104 93/10/104 94/3/104
f 30/33/105 114/28/105 95/1/105
f 108/34/207 118/36/207 100/35/207
f 77/37/108 79/38/108 78/22/108
f 118/36/109 116/40/109 96/39/109
f 2/42/208 45/44/208 118/43/208
f 115/25/209 120/26/209 55/45/209
f 87/46/114 23/48/114 35/47/114
f 38/50/210 83/29/211 81/11/212
f 97/8/119 96/39/119 104/5/119
f 113/52/120 114/106/120 30/51/120
f 105/31/121 82/30/121 84/18/121
f 106/16/213 86/17/214 113/57/215
f 88/58/216 92/12/217 93/10/217
f 100/35/125 96/39/125 97/8/125
f 72/63/126 109/71/126 108/62/126
f 110/21/218 11/66/218 12/65/218
f 77/37/128 76/68/128 74/67/128
f 117/14/129 115/25/129 44/69/129
f 108/62/219 109/71/219 1/70/219
f 73/72/220 100/35/220 101/9/220
f 25/78/135 88/79/221 112/4/134
f 91/80/222 113/57/223 86/17/224
f 87/46/141 85/2/141 37/86/141
f 102/60/143 98/73/143 99/76/143
f 116/40/144 119/87/144 104/5/144
f 113/52/225 24/53/225 55/88/225
f 83/29/226 38/50/227 37/86/228
f 88/79/229 89/90/230 80/6/231
f 84/18/151 82/30/151 89/90/151
f 45/44/232 39/83/232 116/91/232
f 72/63/233 73/64/233 75/93/233
f 122/94/155 115/25/155 117/14/155
f 14/95/157 81/11/157 92/12/157
f 56/96/234 13/97/234 112/4/234
f 78/22/78 111/23/78 76/68/78
f 111/23/78 12/65/78 76/68/78
f 12/65/78 1/70/78 74/67/78
f 1/70/78 109/71/78 74/67/78
f 109/71/78 72/63/78 74/67/78
f 25/98/161 36/99/161 92/12/161
f 97/8/169 105/31/169 106/16/169
